<svg width="18" height="21" viewBox="0 0 18 21" fill="none" xmlns="http://www.w3.org/2000/svg">
<path d="M8.92155 5.68516C8.95284 5.68613 8.98432 5.68658 9.01562 5.68658H9.01574C10.1264 5.68658 11.3315 5.06042 12.0856 4.0916C12.864 3.09296 13.2176 1.89501 13.0559 0.804812C13.019 0.555828 12.7959 0.376752 12.5455 0.394807C11.451 0.471463 10.2118 1.13701 9.46218 2.05076C8.64654 3.04407 8.27284 4.25513 8.46258 5.29032C8.50351 5.5136 8.69467 5.67803 8.92155 5.68516ZM10.2072 2.66233C10.6721 2.09561 11.4248 1.62746 12.1299 1.43971C12.0964 2.39863 11.5757 3.17816 11.3253 3.49943C10.8385 4.12475 10.09 4.57472 9.37595 4.69237C9.39015 3.73878 9.99851 2.91652 10.2072 2.66233Z" fill="#595959" stroke="#595959" stroke-width="0.2"/>
<path d="M17.3543 14.9365C17.3033 14.8138 17.2038 14.7176 17.0794 14.6707C15.0948 13.9224 14.4732 11.7716 15.0357 10.2076C15.3137 9.43182 15.8607 8.80136 16.6175 8.38435C16.742 8.31572 16.8299 8.19557 16.8576 8.05607C16.8853 7.91658 16.8499 7.77194 16.761 7.66098C15.7552 6.40571 14.3254 5.65631 12.9363 5.65631C11.9637 5.65631 11.3054 5.90601 10.7245 6.12627C10.2967 6.28851 9.92721 6.42865 9.50364 6.42865C9.0351 6.42865 8.60781 6.27559 8.11293 6.09832C7.53445 5.8911 6.87887 5.65625 6.0595 5.65625C4.48033 5.65625 2.87989 6.61126 1.88215 8.1495C1.51295 8.72168 1.25407 9.42848 1.11239 10.2511C0.71382 12.5914 1.38913 15.38 2.91908 17.7111C3.78671 19.0302 4.88005 20.3806 6.40981 20.3936L6.44104 20.3937C7.07825 20.3937 7.50695 20.2023 7.92152 20.0171C8.3596 19.8214 8.7734 19.6366 9.52292 19.6329L9.54759 19.6328C10.283 19.6328 10.6837 19.8166 11.1079 20.0112C11.5143 20.1977 11.9346 20.3905 12.5701 20.3905L12.5992 20.3903C14.0984 20.3776 15.2338 18.9572 16.1476 17.568C16.7093 16.7076 16.9232 16.2678 17.3491 15.3189C17.4035 15.1977 17.4053 15.0592 17.3543 14.9365ZM15.3414 17.0398C14.6135 18.1463 13.643 19.4177 12.5905 19.4267L12.57 19.4267C12.145 19.4267 11.8646 19.298 11.5097 19.1352C11.0569 18.9275 10.4935 18.669 9.54746 18.669L9.51772 18.669C8.56553 18.6738 7.9904 18.9307 7.52835 19.1371C7.16203 19.3008 6.8727 19.43 6.44098 19.43L6.41861 19.4299C5.33516 19.4206 4.40958 18.2234 3.72451 17.1819C2.32505 15.0497 1.70372 12.5193 2.06232 10.4139C2.1817 9.72064 2.39355 9.13464 2.69137 8.67304C3.51273 7.40672 4.80333 6.62006 6.0595 6.62006C6.71142 6.62006 7.23432 6.80736 7.78793 7.00565C8.3188 7.19584 8.86772 7.39246 9.50364 7.39246C10.1038 7.39246 10.5931 7.20689 11.0663 7.02743C11.5943 6.82715 12.1404 6.62006 12.9364 6.62006C13.8834 6.62006 14.867 7.07607 15.6486 7.86029C14.9417 8.37561 14.4212 9.06544 14.1286 9.88179C13.3658 12.0032 14.3205 14.3553 16.2705 15.3637C15.9806 15.9923 15.7747 16.3759 15.3414 17.0398Z" fill="#595959" stroke="#595959" stroke-width="0.2"/>
</svg>
