<svg width="13" height="12" viewBox="0 0 13 12" fill="none" xmlns="http://www.w3.org/2000/svg">
<path d="M12.9993 6.38902C12.9949 5.90676 12.8006 5.44568 12.4585 5.10569L8.52602 1.16402C8.35427 0.993291 8.12194 0.897461 7.87977 0.897461C7.6376 0.897461 7.40526 0.993291 7.23352 1.16402C7.1476 1.24924 7.0794 1.35062 7.03287 1.46233C6.98633 1.57403 6.96237 1.69384 6.96237 1.81485C6.96237 1.93587 6.98633 2.05568 7.03287 2.16738C7.0794 2.27909 7.1476 2.38047 7.23352 2.46569L10.2493 5.47235H1.08268C0.839567 5.47235 0.60641 5.56893 0.434501 5.74084C0.262593 5.91275 0.166016 6.14591 0.166016 6.38902C0.166016 6.63214 0.262593 6.86529 0.434501 7.0372C0.60641 7.20911 0.839567 7.30569 1.08268 7.30569H10.2493L7.23352 10.3215C7.0609 10.4929 6.96345 10.7259 6.96259 10.9691C6.96173 11.2124 7.05754 11.446 7.22893 11.6186C7.40033 11.7912 7.63327 11.8887 7.87652 11.8895C8.11978 11.8904 8.3534 11.7946 8.52602 11.6232L12.4585 7.68152C12.8028 7.33928 12.9973 6.87447 12.9993 6.38902Z" fill="white"/>
</svg>
