<svg width="30" height="20" viewBox="0 0 30 20" fill="none" xmlns="http://www.w3.org/2000/svg">
<path d="M1.55937 2.85714H20.4094C20.7939 2.85714 21.1628 2.70663 21.4347 2.43872C21.7066 2.17081 21.8594 1.80745 21.8594 1.42857C21.8594 1.04969 21.7066 0.686328 21.4347 0.418419C21.1628 0.15051 20.7939 0 20.4094 0H1.55937C1.17481 0 0.805996 0.15051 0.534068 0.418419C0.26214 0.686328 0.109374 1.04969 0.109374 1.42857C0.109374 1.80745 0.26214 2.17081 0.534068 2.43872C0.805996 2.70663 1.17481 2.85714 1.55937 2.85714ZM0.109374 10C0.109374 9.62112 0.26214 9.25776 0.534068 8.98985C0.805996 8.72194 1.17481 8.57143 1.55937 8.57143H27.6594C28.0439 8.57143 28.4128 8.72194 28.6847 8.98985C28.9566 9.25776 29.1094 9.62112 29.1094 10C29.1094 10.3789 28.9566 10.7422 28.6847 11.0102C28.4128 11.2781 28.0439 11.4286 27.6594 11.4286H1.55937C1.17481 11.4286 0.805996 11.2781 0.534068 11.0102C0.26214 10.7422 0.109374 10.3789 0.109374 10ZM0.109374 18.5714C0.109374 18.1925 0.26214 17.8292 0.534068 17.5613C0.805996 17.2934 1.17481 17.1429 1.55937 17.1429H14.6094C14.9939 17.1429 15.3628 17.2934 15.6347 17.5613C15.9066 17.8292 16.0594 18.1925 16.0594 18.5714C16.0594 18.9503 15.9066 19.3137 15.6347 19.5816C15.3628 19.8495 14.9939 20 14.6094 20H1.55937C1.17481 20 0.805996 19.8495 0.534068 19.5816C0.26214 19.3137 0.109374 18.9503 0.109374 18.5714Z" fill="#121328"/>
</svg>
