<svg width="21" height="21" viewBox="0 0 21 21" fill="none" xmlns="http://www.w3.org/2000/svg">
<path d="M20.6992 9.07259V16.5726C20.6979 17.6773 20.2585 18.7363 19.4774 19.5174C18.6963 20.2985 17.6372 20.7379 16.5326 20.7393H4.86589C3.76122 20.7379 2.70218 20.2985 1.92107 19.5174C1.13995 18.7363 0.700542 17.6773 0.699219 16.5726L0.699219 7.40592C0.700542 6.30126 1.13995 5.24222 1.92107 4.46111C2.70218 3.67999 3.76122 3.24058 4.86589 3.23926H11.5326C11.7536 3.23926 11.9655 3.32705 12.1218 3.48334C12.2781 3.63962 12.3659 3.85158 12.3659 4.07259C12.3659 4.2936 12.2781 4.50557 12.1218 4.66185C11.9655 4.81813 11.7536 4.90592 11.5326 4.90592H4.86589C4.41273 4.90718 3.96849 5.03199 3.58098 5.26693C3.19348 5.50187 2.87738 5.83804 2.66672 6.23926L8.93089 12.5043C9.40064 12.9718 10.0364 13.2343 10.6992 13.2343C11.362 13.2343 11.9978 12.9718 12.4676 12.5043L15.6517 9.32259C15.8089 9.17079 16.0194 9.0868 16.2379 9.0887C16.4564 9.0906 16.6654 9.17824 16.8199 9.33274C16.9744 9.48725 17.062 9.69626 17.0639 9.91476C17.0658 10.1333 16.9818 10.3438 16.8301 10.5009L13.6459 13.6859C12.8636 14.4659 11.8039 14.9039 10.6992 14.9039C9.5945 14.9039 8.53485 14.4659 7.75255 13.6859L2.36589 8.29842V16.5726C2.36589 17.2356 2.62928 17.8715 3.09812 18.3404C3.56696 18.8092 4.20284 19.0726 4.86589 19.0726H16.5326C17.1956 19.0726 17.8315 18.8092 18.3003 18.3404C18.7692 17.8715 19.0326 17.2356 19.0326 16.5726V9.07259C19.0326 8.85158 19.1203 8.63962 19.2766 8.48334C19.4329 8.32705 19.6449 8.23926 19.8659 8.23926C20.0869 8.23926 20.2989 8.32705 20.4551 8.48334C20.6114 8.63962 20.6992 8.85158 20.6992 9.07259ZM14.8659 4.90592H16.5326V6.57259C16.5326 6.7936 16.6203 7.00557 16.7766 7.16185C16.9329 7.31813 17.1449 7.40592 17.3659 7.40592C17.5869 7.40592 17.7989 7.31813 17.9551 7.16185C18.1114 7.00557 18.1992 6.7936 18.1992 6.57259V4.90592H19.8659C20.0869 4.90592 20.2989 4.81813 20.4551 4.66185C20.6114 4.50557 20.6992 4.2936 20.6992 4.07259C20.6992 3.85158 20.6114 3.63962 20.4551 3.48334C20.2989 3.32705 20.0869 3.23926 19.8659 3.23926H18.1992V1.57259C18.1992 1.35158 18.1114 1.13962 17.9551 0.983335C17.7989 0.827055 17.5869 0.739258 17.3659 0.739258C17.1449 0.739258 16.9329 0.827055 16.7766 0.983335C16.6203 1.13962 16.5326 1.35158 16.5326 1.57259V3.23926H14.8659C14.6449 3.23926 14.4329 3.32705 14.2766 3.48334C14.1203 3.63962 14.0326 3.85158 14.0326 4.07259C14.0326 4.2936 14.1203 4.50557 14.2766 4.66185C14.4329 4.81813 14.6449 4.90592 14.8659 4.90592Z" fill="#FFB300"/>
</svg>
