<svg width="21" height="21" viewBox="0 0 21 21" fill="none" xmlns="http://www.w3.org/2000/svg">
<path fill-rule="evenodd" clip-rule="evenodd" d="M8.49442 3.25098C7.83383 3.25098 7.22595 3.62693 6.93052 4.21777L6.70034 4.67955H4.99833C3.82332 4.67955 2.85547 5.6474 2.85547 6.8224V13.9653C2.85547 15.1403 3.82332 16.1081 4.99833 16.1081H14.9983C16.1733 16.1081 17.1412 15.1403 17.1412 13.9653V6.8224C17.1412 5.6474 16.1733 4.67955 14.9983 4.67955H13.2963L13.0661 4.21777C12.7707 3.62693 12.1628 3.25098 11.5022 3.25098H8.49442ZM8.49442 4.67955H11.5022C11.6247 4.67955 11.7334 4.74719 11.7882 4.85672L12.2165 5.71331C12.2759 5.83196 12.3671 5.93173 12.4799 6.00146C12.5928 6.07119 12.7228 6.10813 12.8555 6.10812H14.9983C15.4013 6.10812 15.7126 6.41946 15.7126 6.8224V13.9653C15.7126 14.3682 15.4013 14.6795 14.9983 14.6795H4.99833C4.59538 14.6795 4.28404 14.3682 4.28404 13.9653V6.8224C4.28404 6.41946 4.59538 6.10812 4.99833 6.10812H7.14118C7.27384 6.10813 7.40388 6.07119 7.51673 6.00146C7.62959 5.93173 7.72079 5.83196 7.78013 5.71331L8.20843 4.85672C8.26321 4.74715 8.37192 4.67955 8.49442 4.67955Z" fill="#595959"/>
<path fill-rule="evenodd" clip-rule="evenodd" d="M0.714286 0.393555C0.524851 0.393574 0.343181 0.468835 0.209231 0.602785C0.0752802 0.736736 1.89406e-05 0.918406 0 1.10784V3.96498C0 4.15442 0.0752543 4.33611 0.209209 4.47006C0.343163 4.60401 0.524845 4.67927 0.714286 4.67927C0.903726 4.67927 1.08541 4.60401 1.21936 4.47006C1.35332 4.33611 1.42857 4.15442 1.42857 3.96498V1.82213H3.57143C3.76087 1.82213 3.94255 1.74687 4.07651 1.61292C4.21046 1.47896 4.28571 1.29728 4.28571 1.10784C4.28571 0.9184 4.21046 0.736718 4.07651 0.602764C3.94255 0.468809 3.76087 0.393555 3.57143 0.393555H0.714286Z" fill="#595959"/>
<path fill-rule="evenodd" clip-rule="evenodd" d="M0.714286 16.1074C0.524845 16.1074 0.343163 16.1827 0.209209 16.3166C0.0752543 16.4506 0 16.6323 0 16.8217V19.6789C1.89406e-05 19.8683 0.0752802 20.05 0.209231 20.1839C0.343181 20.3179 0.524851 20.3931 0.714286 20.3931H3.57143C3.76087 20.3931 3.94255 20.3179 4.07651 20.1839C4.21046 20.05 4.28571 19.8683 4.28571 19.6789C4.28571 19.4894 4.21046 19.3077 4.07651 19.1738C3.94255 19.0398 3.76087 18.9646 3.57143 18.9646H1.42857V16.8217C1.42857 16.6323 1.35332 16.4506 1.21936 16.3166C1.08541 16.1827 0.903726 16.1074 0.714286 16.1074Z" fill="#595959"/>
<path fill-rule="evenodd" clip-rule="evenodd" d="M16.4291 0.393555C16.2397 0.393555 16.058 0.468809 15.9241 0.602764C15.7901 0.736718 15.7148 0.9184 15.7148 1.10784C15.7148 1.29728 15.7901 1.47896 15.9241 1.61292C16.058 1.74687 16.2397 1.82213 16.4291 1.82213H18.572V3.96498C18.572 4.15442 18.6472 4.33611 18.7812 4.47006C18.9151 4.60401 19.0968 4.67927 19.2863 4.67927C19.4757 4.67927 19.6574 4.60401 19.7913 4.47006C19.9253 4.33611 20.0006 4.15442 20.0006 3.96498V1.10784C20.0005 0.918406 19.9253 0.736736 19.7913 0.602785C19.6574 0.468835 19.4757 0.393574 19.2863 0.393555H16.4291Z" fill="#595959"/>
<path fill-rule="evenodd" clip-rule="evenodd" d="M19.2863 16.1074C19.0968 16.1074 18.9151 16.1827 18.7812 16.3166C18.6472 16.4506 18.572 16.6323 18.572 16.8217V18.9646H16.4291C16.2397 18.9646 16.058 19.0398 15.9241 19.1738C15.7901 19.3077 15.7148 19.4894 15.7148 19.6789C15.7148 19.8683 15.7901 20.05 15.9241 20.1839C16.058 20.3179 16.2397 20.3931 16.4291 20.3931H19.2863C19.4757 20.3931 19.6574 20.3179 19.7913 20.1839C19.9253 20.05 20.0005 19.8683 20.0006 19.6789V16.8217C20.0006 16.6323 19.9253 16.4506 19.7913 16.3166C19.6574 16.1827 19.4757 16.1074 19.2863 16.1074Z" fill="#595959"/>
<path fill-rule="evenodd" clip-rule="evenodd" d="M10.0017 7.53613C8.43218 7.53613 7.14453 8.82378 7.14453 10.3933C7.14453 11.9628 8.43218 13.2504 10.0017 13.2504C11.5712 13.2504 12.8588 11.9628 12.8588 10.3933C12.8588 8.82378 11.5712 7.53613 10.0017 7.53613ZM10.0017 8.9647C10.7991 8.9647 11.4302 9.59584 11.4302 10.3933C11.4302 11.1907 10.7991 11.8218 10.0017 11.8218C9.20424 11.8218 8.5731 11.1907 8.5731 10.3933C8.5731 9.59584 9.20424 8.9647 10.0017 8.9647Z" fill="#595959"/>
</svg>
