<svg width="17" height="21" viewBox="0 0 17 21" fill="none" xmlns="http://www.w3.org/2000/svg">
<path d="M14.6385 20.0001H2.36417C2.17582 20.0012 1.99371 19.9325 1.85301 19.8073C1.71231 19.6821 1.62298 19.5092 1.60226 19.322L1.00037 7.28961C0.997193 7.1887 1.01472 7.0882 1.05189 6.99433C1.08906 6.90046 1.14506 6.81519 1.21645 6.7438C1.28784 6.6724 1.37311 6.6164 1.46699 6.57923C1.56086 6.54207 1.66136 6.52454 1.76227 6.52771H15.3661C15.5681 6.52771 15.7619 6.60798 15.9048 6.75086C16.0477 6.89375 16.128 7.08754 16.128 7.28961L15.4004 19.3296C15.3779 19.5154 15.2878 19.6865 15.1473 19.8102C15.0068 19.9338 14.8256 20.0014 14.6385 20.0001Z" stroke="#121328" stroke-width="1.5" stroke-linecap="round" stroke-linejoin="round"/>
<path d="M4.75391 8.99999V4.80952C4.75391 3.79917 5.15527 2.8302 5.8697 2.11578C6.58412 1.40136 7.55308 1 8.56343 1C9.57378 1 10.5427 1.40136 11.2572 2.11578C11.9716 2.8302 12.373 3.79917 12.373 4.80952V8.99999" stroke="#121328" stroke-width="1.5" stroke-linecap="round" stroke-linejoin="round"/>
</svg>
