<svg width="23" height="28" viewBox="0 0 23 28" fill="none" xmlns="http://www.w3.org/2000/svg">
<path d="M19.2274 25.9995H3.72314C3.48523 26.001 3.2552 25.9142 3.07747 25.7561C2.89975 25.5979 2.78692 25.3795 2.76075 25.143L2.00046 9.94431C1.99645 9.81684 2.0186 9.6899 2.06555 9.57132C2.11249 9.45274 2.18323 9.34504 2.27341 9.25486C2.36359 9.16468 2.4713 9.09394 2.58987 9.04699C2.70845 9.00004 2.83539 8.9779 2.96286 8.98191H20.1464C20.4017 8.98191 20.6465 9.0833 20.827 9.26379C21.0074 9.44427 21.1088 9.68906 21.1088 9.94431L20.1898 25.1526C20.1614 25.3874 20.0476 25.6034 19.8701 25.7597C19.6926 25.9159 19.4638 26.0013 19.2274 25.9995Z" stroke="white" stroke-width="2.4" stroke-linecap="round" stroke-linejoin="round"/>
<path d="M6.74023 12.1052V6.812C6.74023 5.53578 7.24722 4.31182 8.14964 3.4094C9.05206 2.50697 10.276 2 11.5522 2C12.8284 2 14.0524 2.50697 14.9548 3.4094C15.8572 4.31182 16.3642 5.53578 16.3642 6.812V12.1052" stroke="white" stroke-width="2.4" stroke-linecap="round" stroke-linejoin="round"/>
</svg>
