<svg width="32" height="32" viewBox="0 0 32 32" fill="none" xmlns="http://www.w3.org/2000/svg">
<path fill-rule="evenodd" clip-rule="evenodd" d="M11.1386 11.6387C13.8235 8.95378 18.1764 8.95378 20.8613 11.6387C23.5462 14.3235 23.5462 18.6765 20.8613 21.3613C19.9312 22.2915 18.8008 22.8991 17.6089 23.1848L16 25.4375L14.3905 23.1847C13.1989 22.899 12.0687 22.2913 11.1386 21.3613C8.4538 18.6765 8.4538 14.3235 11.1386 11.6387Z" fill="#FFB300"/>
<path fill-rule="evenodd" clip-rule="evenodd" d="M3.4375 14.9375H6.25V24.3125H3.4375C1.89062 24.3125 0.625 23.0469 0.625 21.5V17.75C0.625 16.2031 1.89062 14.9375 3.4375 14.9375Z" stroke="#121328" stroke-width="1.25" stroke-miterlimit="22.9256" stroke-linecap="round" stroke-linejoin="round"/>
<path fill-rule="evenodd" clip-rule="evenodd" d="M28.5626 14.9375H25.75V24.3125H28.5626C30.1094 24.3125 31.375 23.0469 31.375 21.5V17.75C31.3751 16.2031 30.1094 14.9375 28.5626 14.9375Z" stroke="#121328" stroke-width="1.25" stroke-miterlimit="22.9256" stroke-linecap="round" stroke-linejoin="round"/>
<path d="M28.5624 24V13.1875C28.5624 6.2781 22.9093 0.625 15.9999 0.625C9.0906 0.625 3.4375 6.2781 3.4375 13.1875V27.3125C3.4375 28.6875 4.5625 29.8125 5.93749 29.8125H12.875" stroke="#121328" stroke-width="1.25" stroke-miterlimit="22.9256" stroke-linecap="round" stroke-linejoin="round"/>
<path fill-rule="evenodd" clip-rule="evenodd" d="M14.4375 31.375H17.5625C18.4219 31.375 19.125 30.6719 19.125 29.8125C19.125 28.9531 18.4219 28.25 17.5625 28.25H14.4375C13.5781 28.25 12.875 28.9531 12.875 29.8125C12.875 30.6719 13.5781 31.375 14.4375 31.375Z" stroke="#121328" stroke-width="1.25" stroke-miterlimit="22.9256" stroke-linecap="round" stroke-linejoin="round"/>
<path d="M5.31055 7.01574C5.68405 7.23136 5.94423 7.38161 6.31773 7.59723C7.07948 8.03704 7.90872 7.69798 8.36841 7.11961C10.2013 4.81356 13.0029 3.4375 16.0003 3.4375C18.9977 3.4375 21.7993 4.81356 23.6322 7.11961C24.0919 7.69792 24.9212 8.03704 25.6829 7.59723C26.0564 7.38161 26.3166 7.23136 26.6901 7.01574" stroke="#121328" stroke-width="1.25" stroke-miterlimit="22.9256" stroke-linecap="round" stroke-linejoin="round"/>
<path d="M13.4219 13.9219H18.5781" stroke="#121328" stroke-width="1.25" stroke-miterlimit="22.9256" stroke-linecap="round" stroke-linejoin="round"/>
<path d="M13.4219 16.5H18.5781" stroke="#121328" stroke-width="1.25" stroke-miterlimit="22.9256" stroke-linecap="round" stroke-linejoin="round"/>
<path d="M13.4219 19.0781H16" stroke="#121328" stroke-width="1.25" stroke-miterlimit="22.9256" stroke-linecap="round" stroke-linejoin="round"/>
</svg>
