<svg width="33" height="30" viewBox="0 0 33 30" fill="none" xmlns="http://www.w3.org/2000/svg">
<path fill-rule="evenodd" clip-rule="evenodd" d="M1.125 6.24248H22.4601V2.85351C22.4601 1.67898 21.4999 0.71875 20.3253 0.71875H3.25976C2.08523 0.71875 1.125 1.67898 1.125 2.85351V6.24248Z" fill="#FFB300"/>
<path d="M23.8578 19.6484H15.2656V26.5629H23.8578V19.6484Z" fill="#FFB300"/>
<path d="M4.02128 3.48047H4.01953" stroke="#121328" stroke-width="1.25076" stroke-miterlimit="10" stroke-linecap="round" stroke-linejoin="round"/>
<path d="M6.61119 3.48047H6.60938" stroke="#121328" stroke-width="1.25076" stroke-miterlimit="10" stroke-linecap="round" stroke-linejoin="round"/>
<path d="M9.20278 3.48047H9.19922" stroke="#121328" stroke-width="1.25076" stroke-miterlimit="10" stroke-linecap="round" stroke-linejoin="round"/>
<path d="M15.6914 3.48047H19.5659" stroke="#121328" stroke-width="1.25076" stroke-miterlimit="10" stroke-linecap="round" stroke-linejoin="round"/>
<path d="M13.6699 16.9268H30.7496C31.3679 16.9268 31.8746 17.4334 31.8746 18.0517V28.1568C31.8746 28.7751 31.3679 29.2818 30.7496 29.2818H13.6699C13.0516 29.2818 12.5449 28.7751 12.5449 28.1568V18.0517C12.5449 17.4334 13.0516 16.9268 13.6699 16.9268Z" stroke="#121328" stroke-width="1.25076" stroke-miterlimit="10" stroke-linecap="round" stroke-linejoin="round"/>
<path d="M12.5447 19.3624C12.302 19.4084 12.0504 19.435 11.7918 19.435C9.63935 19.435 7.89258 17.6882 7.89258 15.5358C7.89258 13.3815 9.63935 11.6348 11.7918 11.6348C13.946 11.6348 15.691 13.3815 15.691 15.5358C15.691 16.0247 15.6006 16.4942 15.4359 16.9265" stroke="#121328" stroke-width="1.25076" stroke-miterlimit="10" stroke-linecap="round" stroke-linejoin="round"/>
<path d="M12.5447 22.0994C12.2984 22.1278 12.0469 22.1419 11.7918 22.1419C8.1441 22.1419 5.18555 19.1833 5.18555 15.5357C5.18555 11.8862 8.1441 8.92773 11.7918 8.92773C15.4412 8.92773 18.3997 11.8863 18.3997 15.5357C18.3997 16.0122 18.3483 16.4782 18.2527 16.9264" stroke="#121328" stroke-width="1.25076" stroke-miterlimit="10" stroke-linecap="round" stroke-linejoin="round"/>
<path d="M22.4601 16.9268V2.85351C22.4601 1.67898 21.4999 0.71875 20.3253 0.71875H3.25976C2.08523 0.71875 1.125 1.67898 1.125 2.85351V22.6934C1.125 23.8679 2.08516 24.8281 3.25976 24.8281H12.5446" stroke="#121328" stroke-width="1.25076" stroke-miterlimit="10" stroke-linecap="round" stroke-linejoin="round"/>
<path d="M26.5762 16.9268V29.2818" stroke="#121328" stroke-width="1.25076" stroke-miterlimit="10" stroke-linecap="round" stroke-linejoin="round"/>
<path d="M29.2282 19.8662H29.2246M29.2282 22.458H29.2246" stroke="#121328" stroke-width="1.25076" stroke-miterlimit="10" stroke-linecap="round" stroke-linejoin="round"/>
</svg>
