<svg width="33" height="32" viewBox="0 0 33 32" fill="none" xmlns="http://www.w3.org/2000/svg">
<path d="M23.8493 31.375H9.14931C7.85437 31.375 6.80469 30.3252 6.80469 29.0304V2.96962C6.80469 1.67475 7.85444 0.625 9.14931 0.625H23.8493C25.1442 0.625 26.1939 1.67475 26.1939 2.96962V29.0303C26.1939 30.3252 25.1442 31.375 23.8493 31.375Z" stroke="#121328" stroke-width="1.25" stroke-miterlimit="10" stroke-linecap="round" stroke-linejoin="round"/>
<path d="M16.5002 9.65773C17.3763 9.65773 18.0864 8.94757 18.0864 8.07154C18.0864 7.19551 17.3763 6.48535 16.5002 6.48535C15.6242 6.48535 14.9141 7.19551 14.9141 8.07154C14.9141 8.94757 15.6242 9.65773 16.5002 9.65773Z" fill="#FFB300"/>
<path d="M16.4998 12.9858C19.2136 12.9858 21.4136 10.7858 21.4136 8.07202C21.4136 5.35819 19.2136 3.1582 16.4998 3.1582C13.7859 3.1582 11.5859 5.35819 11.5859 8.07202C11.5859 10.7858 13.7859 12.9858 16.4998 12.9858Z" stroke="#121328" stroke-width="1.25" stroke-miterlimit="10" stroke-linecap="round" stroke-linejoin="round"/>
<path d="M16.4977 28.8411C20.1931 28.8411 23.1888 25.8454 23.1888 22.15C23.1888 18.4547 20.1931 15.459 16.4977 15.459C12.8023 15.459 9.80664 18.4547 9.80664 22.15C9.80664 25.8454 12.8023 28.8411 16.4977 28.8411Z" fill="#FFB300"/>
<path d="M16.4978 24.3101C17.6907 24.3101 18.6578 23.3431 18.6578 22.1502C18.6578 20.9573 17.6907 19.9902 16.4978 19.9902C15.3049 19.9902 14.3379 20.9573 14.3379 22.1502C14.3379 23.3431 15.3049 24.3101 16.4978 24.3101Z" stroke="#121328" stroke-width="1.25" stroke-miterlimit="10" stroke-linecap="round" stroke-linejoin="round"/>
<path d="M28.7031 10.2305V21.7677" stroke="#121328" stroke-width="1.25" stroke-miterlimit="10" stroke-linecap="round" stroke-linejoin="round"/>
<path d="M31.1543 13.6055V18.3927" stroke="#121328" stroke-width="1.25" stroke-miterlimit="10" stroke-linecap="round" stroke-linejoin="round"/>
<path d="M4.29492 21.7677V10.2305" stroke="#121328" stroke-width="1.25" stroke-miterlimit="10" stroke-linecap="round" stroke-linejoin="round"/>
<path d="M1.84375 18.3927V13.6055" stroke="#121328" stroke-width="1.25" stroke-miterlimit="10" stroke-linecap="round" stroke-linejoin="round"/>
</svg>
