<svg width="33" height="32" viewBox="0 0 33 32" fill="none" xmlns="http://www.w3.org/2000/svg">
<mask id="mask0_652_959" style="mask-type:luminance" maskUnits="userSpaceOnUse" x="0" y="0" width="33" height="32">
<path d="M0.5 0H32.5V32H0.5V0Z" fill="white"/>
</mask>
<g mask="url(#mask0_652_959)">
<path d="M29.7061 9.93619H22.5639V2.79393C22.5639 1.59612 21.5928 0.624996 20.3949 0.624996H12.6051C11.4073 0.624996 10.4362 1.59612 10.4362 2.79393V9.93619H3.29387C2.09606 9.93619 1.125 10.9072 1.125 12.1051V19.895C1.125 21.0928 2.09606 22.0639 3.29387 22.0639H10.4362V29.2061C10.4362 30.4039 11.4073 31.375 12.6051 31.375H20.3949C21.5928 31.375 22.5639 30.4039 22.5639 29.2061V22.0639H29.7061C30.904 22.0639 31.875 21.0928 31.875 19.895V12.1051C31.875 10.9072 30.904 9.93619 29.7061 9.93619Z" stroke="#121328" stroke-width="1.25" stroke-miterlimit="10" stroke-linecap="round" stroke-linejoin="round"/>
<path d="M13.3112 28.5V19.1888H4V12.8112H13.3112V3.5H19.6889V12.8112H29V19.1888H19.6889V28.5H13.3112Z" fill="#FFB300"/>
</g>
</svg>
