<svg width="32" height="32" viewBox="0 0 32 32" fill="none" xmlns="http://www.w3.org/2000/svg">
<path fill-rule="evenodd" clip-rule="evenodd" d="M7.59175 28.0798L14.3168 15.8698H9.8825L10.5539 8.04102L4.78906 18.8196H9.28544L7.59175 28.0798Z" fill="#FFB300"/>
<path d="M31.0233 11.1488H29.7633V7.33413C29.7633 6.98894 29.4835 6.70913 29.1383 6.70913C28.7931 6.70913 28.5133 6.98894 28.5133 7.33413V11.1488H24.6221V7.33413C24.6221 6.98894 24.3423 6.70913 23.9971 6.70913C23.6519 6.70913 23.3721 6.98894 23.3721 7.33413V11.1488H22.1121C21.7669 11.1488 21.4871 11.4286 21.4871 11.7738V16.1586C21.4871 18.7483 23.4352 20.8902 25.9427 21.1994V28.1507C25.9427 29.034 25.2241 29.7526 24.3407 29.7526C23.4565 29.7526 22.7371 29.0339 22.7371 28.1502L22.7335 23.6667C22.7289 22.0951 21.4496 20.8166 19.8816 20.8166C19.4874 20.8166 19.1062 20.8968 18.7562 21.0471V6.52806C18.7562 5.20169 17.6763 4.12256 16.3489 4.12256H13.7478V1.47362C13.7478 0.661062 13.0868 0 12.2743 0H6.83362C6.02006 0 5.35819 0.661062 5.35819 1.47362V4.12256H2.75706C1.43069 4.12256 0.351562 5.20169 0.351562 6.52806V29.5928C0.351562 30.9201 1.43069 32 2.75706 32H16.3489C17.6763 32 18.7562 30.9201 18.7562 29.5928V22.5301C19.0545 22.2336 19.4547 22.0666 19.8816 22.0666C20.7623 22.0666 21.4809 22.786 21.4835 23.669L21.4871 28.1507C21.4871 29.7233 22.7672 31.0026 24.3407 31.0026C25.9133 31.0026 27.1927 29.7232 27.1927 28.1507V21.1994C29.7002 20.8902 31.6483 18.7483 31.6483 16.1586V11.7738C31.6483 11.4286 31.3684 11.1488 31.0233 11.1488ZM6.60819 1.47362C6.60819 1.35244 6.71137 1.25 6.83356 1.25H12.2742C12.3954 1.25 12.4978 1.35237 12.4978 1.47362V4.12256H6.60819V1.47362ZM17.5062 29.5928C17.5062 30.2309 16.9871 30.75 16.3489 30.75H2.75706C2.11994 30.75 1.60156 30.2309 1.60156 29.5928V6.52806C1.60156 5.89094 2.11987 5.37256 2.75706 5.37256H16.3489C16.9871 5.37256 17.5062 5.89087 17.5062 6.52806V29.5928ZM30.3983 16.1586C30.3983 18.2707 28.6799 19.9892 26.5677 19.9892C24.4555 19.9892 22.7371 18.2707 22.7371 16.1586V12.3988H30.3983V16.1586Z" fill="#121328"/>
<path d="M26.5678 18.2943C27.7261 18.2943 28.6685 17.3519 28.6685 16.1935C28.6685 15.0351 27.7261 14.0928 26.5678 14.0928C25.4104 14.0928 24.4688 15.0352 24.4688 16.1935C24.4688 17.3518 25.4104 18.2943 26.5678 18.2943ZM26.5678 15.3428C27.0368 15.3428 27.4185 15.7244 27.4185 16.1935C27.4185 16.6626 27.0369 17.0443 26.5678 17.0443C26.0996 17.0443 25.7188 16.6626 25.7188 16.1935C25.7188 15.7244 26.0996 15.3428 26.5678 15.3428Z" fill="#121328"/>
</svg>
