<svg width="33" height="32" viewBox="0 0 33 32" fill="none" xmlns="http://www.w3.org/2000/svg">
<g clip-path="url(#clip0_652_899)">
<path d="M16.5008 25.9119C21.4437 25.9119 25.4508 21.8751 25.4508 16.8954C25.4508 11.9157 21.4437 7.87891 16.5008 7.87891C11.5578 7.87891 7.55078 11.9157 7.55078 16.8954C7.55078 21.8751 11.5578 25.9119 16.5008 25.9119Z" stroke="#121328" stroke-width="1.25" stroke-miterlimit="10" stroke-linecap="round" stroke-linejoin="round"/>
<path d="M28.2359 4.95817H27.1476L25.9318 3.46655C25.392 2.80423 24.5829 2.41992 23.7285 2.41992H9.2715C8.41706 2.41992 7.608 2.8043 7.06819 3.46655L5.85244 4.95817H4.76412C2.75431 4.95817 1.125 6.59955 1.125 8.6243V25.9135C1.125 27.9383 2.75431 29.5797 4.76412 29.5797H28.2359C30.2457 29.5797 31.875 27.9384 31.875 25.9135V8.6243C31.875 6.59955 30.2457 4.95817 28.2359 4.95817Z" stroke="#121328" stroke-width="1.25" stroke-miterlimit="10" stroke-linecap="round" stroke-linejoin="round"/>
<path d="M27.2974 10.9932C28.0667 10.9932 28.6904 10.3695 28.6904 9.60009C28.6904 8.83073 28.0667 8.20703 27.2974 8.20703C26.528 8.20703 25.9043 8.83073 25.9043 9.60009C25.9043 10.3695 26.528 10.9932 27.2974 10.9932Z" stroke="#121328" stroke-width="1.25" stroke-miterlimit="10" stroke-linecap="round" stroke-linejoin="round"/>
<path d="M21.3187 14.4363C20.4462 14.4363 19.7388 13.729 19.7388 12.8565C19.7388 12.4584 19.8862 12.0947 20.1292 11.8168C19.1084 11.0698 17.8546 10.6289 16.5008 10.6289C13.0821 10.6289 10.3008 13.44 10.3008 16.8954C10.3008 20.3508 13.0821 23.1619 16.5008 23.1619C19.9195 23.1619 22.7008 20.3508 22.7008 16.8954C22.7008 15.9407 22.4885 15.0352 22.109 14.2246C21.8766 14.3593 21.6067 14.4363 21.3187 14.4363Z" fill="#FFB300"/>
<path d="M6.01562 25.9111H26.9837" stroke="#121328" stroke-width="1.25" stroke-miterlimit="10" stroke-linecap="round" stroke-linejoin="round"/>
</g>
<defs>
<clipPath id="clip0_652_899">
<rect width="32" height="32" fill="white" transform="translate(0.5)"/>
</clipPath>
</defs>
</svg>
