<svg width="32" height="32" viewBox="0 0 32 32" fill="none" xmlns="http://www.w3.org/2000/svg">
<g clip-path="url(#clip0_647_828)">
<path d="M6.27539 8.7832H23.2193V23.2168H6.27539V8.7832Z" fill="#FFB300"/>
<path d="M26.3575 18.8266H26.3549V13.1735H26.3575C27.7402 13.1735 28.8651 12.0486 28.8651 10.6659C28.8651 9.28319 27.7402 8.15825 26.3575 8.15825H26.3549V8.15569C26.3549 6.77294 25.23 5.648 23.8473 5.648H23.6703L22.3591 1.71463C22.0172 0.689 21.0612 0 19.9801 0H9.51544C8.43438 0 7.47831 0.689 7.13644 1.71469L5.82538 5.64794H5.64825C4.26556 5.64794 3.14062 6.77288 3.14062 8.15563V23.8444C3.14062 25.2271 4.26556 26.3521 5.64825 26.3521H5.82538L7.1365 30.2854C7.47838 31.311 8.43444 32.0001 9.51544 32.0001H19.9801C21.0612 32.0001 22.0173 31.3111 22.3591 30.2854L23.6703 26.3521H23.8473C25.23 26.3521 26.3549 25.2271 26.3549 23.8444V23.8419H26.3575C27.7402 23.8419 28.8651 22.7169 28.8651 21.3342C28.8651 19.9515 27.7402 18.8266 26.3575 18.8266ZM26.3575 9.40819C27.051 9.40819 27.6151 9.97231 27.6151 10.6658C27.6151 11.3593 27.051 11.9234 26.3575 11.9234H26.3549V9.40819H26.3575ZM8.32225 2.11C8.49375 1.59562 8.97325 1.25 9.51544 1.25H19.9801C20.5223 1.25 21.0018 1.59556 21.1733 2.10994L22.3526 5.64794H7.14294L8.32225 2.11ZM21.1733 29.89C21.0018 30.4044 20.5223 30.75 19.9801 30.75H9.51544C8.97325 30.75 8.49375 30.4044 8.32231 29.8901L7.14294 26.3521H22.3526L21.1733 29.89ZM25.1049 23.8444C25.1049 24.5379 24.5408 25.1021 23.8473 25.1021C20.5055 25.1021 8.99113 25.1021 5.64825 25.1021C4.95475 25.1021 4.39063 24.5379 4.39063 23.8444V8.15563C4.39063 7.46213 4.95475 6.89794 5.64825 6.89794H23.8473C24.5408 6.89794 25.1049 7.46213 25.1049 8.15563V23.8444ZM26.3575 22.5919H26.3549V20.0766H26.3575C27.051 20.0766 27.6151 20.6407 27.6151 21.3342C27.6151 22.0277 27.051 22.5919 26.3575 22.5919Z" fill="#121328"/>
<path d="M14.7476 11.7242C13.5585 11.0477 12.0106 11.1977 10.9778 12.2307C9.85369 13.3547 9.74813 15.142 10.7299 16.385C10.8193 16.4994 14.2487 19.929 14.3631 20.0182C14.5888 20.1944 14.9058 20.1946 15.1319 20.0184C15.2462 19.9293 18.6759 16.4996 18.763 16.388C19.7473 15.1421 19.6417 13.3549 18.5175 12.2307C17.4859 11.1993 15.9391 11.0461 14.7476 11.7242ZM17.7948 15.5968C17.5871 15.8155 15.6271 17.7776 14.7476 18.6503C13.8678 17.7773 11.9068 15.8141 11.7003 15.5967C11.1229 14.8489 11.1907 13.7855 11.8616 13.1146C12.5514 12.4249 13.63 12.3891 14.3601 12.9661C14.5871 13.1455 14.9079 13.1454 15.1349 12.9661C15.8664 12.3884 16.9436 12.4247 17.6336 13.1146C18.3038 13.7848 18.3723 14.8464 17.7948 15.5968Z" fill="#121328"/>
</g>
<defs>
<clipPath id="clip0_647_828">
<rect width="32" height="32" fill="white"/>
</clipPath>
</defs>
</svg>
