<svg width="13" height="21" viewBox="0 0 13 21" fill="none" xmlns="http://www.w3.org/2000/svg">
<path d="M11.5941 7.47833L7.3516 8.4061L9.42598 1.14192C9.6062 0.510569 8.76202 0.106114 8.3835 0.643838L0.108436 12.4006C-0.202707 12.8426 0.202881 13.4359 0.727599 13.3067L4.50788 12.3761L2.44025 19.6472C2.26211 20.2737 3.09148 20.673 3.47446 20.1564L12.19 8.39965C12.5116 7.96571 12.1217 7.36303 11.5941 7.47833ZM4.44574 16.8785L5.9108 11.7263C6.03333 11.2955 5.64469 10.8894 5.20723 10.9971L1.9678 11.7946L7.34824 4.15043L5.95568 9.02702C5.83448 9.45143 6.21038 9.85526 6.64421 9.76023L10.3182 8.95679L4.44574 16.8785Z" fill="#595959"/>
<path d="M11.2156 16.8779L9.80954 16.8545L10.5563 15.3857C10.703 15.0973 10.5881 14.7446 10.2996 14.598C10.0112 14.4513 9.6585 14.5662 9.51183 14.8547L8.34006 17.1591C8.10168 17.6265 8.41365 17.9328 8.86294 18.0107L10.2657 18.0341L9.51011 19.5453C9.3654 19.8347 9.48269 20.1866 9.77212 20.3313C10.0621 20.4763 10.4137 20.3582 10.5581 20.0693L11.7299 17.7258C11.9224 17.3408 11.6439 16.8842 11.2156 16.8779Z" fill="#595959"/>
<path d="M2.09376 0.457472C1.80433 0.312798 1.45241 0.430092 1.3077 0.719479L0.135929 3.06302C-0.0546391 3.44419 0.217133 3.91091 0.663381 3.91091H2.05552L1.3077 5.40655C1.16298 5.69598 1.28032 6.04786 1.5697 6.19261C1.85968 6.3376 2.21133 6.21945 2.35577 5.9306L3.52753 3.58707C3.72248 3.19714 3.43575 2.73918 3.00348 2.73918H1.60794L2.35577 1.24353C2.50048 0.954106 2.38315 0.602185 2.09376 0.457472Z" fill="#595959"/>
</svg>
