<svg width="41" height="40" viewBox="0 0 41 40" fill="none" xmlns="http://www.w3.org/2000/svg">
<g clip-path="url(#clip0_967_1055)">
<path d="M37.6998 22.4171L36.664 18.2738C36.9472 18.2136 37.1597 17.9623 37.1597 17.6613V16.9933C37.1597 15.5428 35.9796 14.3628 34.5292 14.3628H29.8111V12.9849C29.8111 12.2712 29.2305 11.6906 28.5167 11.6906H19.7438L25.075 9.55805C25.3962 9.42962 25.5523 9.06508 25.4239 8.74391C25.2955 8.42282 24.9312 8.26649 24.6098 8.39501L20.2446 10.141C21.5748 9.28758 22.8908 8.34829 23.3918 7.69141C24.3672 6.41258 24.1202 4.57868 22.8413 3.60329C21.5625 2.62782 19.7286 2.87493 18.7532 4.15376C18.0405 5.08829 17.1002 7.71415 16.4916 9.56454C15.883 7.7143 14.9427 5.08829 14.2301 4.15376C13.2548 2.87493 11.4208 2.62797 10.142 3.60329C8.86312 4.5786 8.61617 6.41251 9.59148 7.69141C10.0925 8.34837 11.4084 9.28758 12.7387 10.141L8.37352 8.39501C8.05219 8.26633 7.68781 8.42274 7.55937 8.74391C7.43086 9.06508 7.58711 9.42962 7.90828 9.55805L13.2395 11.6906H4.46656C3.75281 11.6906 3.17219 12.2712 3.17219 12.9849V24.342C3.17219 24.6878 3.45258 24.9683 3.79852 24.9683C4.14438 24.9683 4.42484 24.6879 4.42484 24.342V12.9849C4.42484 12.9619 4.44352 12.9432 4.46656 12.9432H28.5166C28.5397 12.9432 28.5584 12.9619 28.5584 12.9849V24.3421C28.5584 24.688 28.8388 24.9684 29.1847 24.9684C29.5305 24.9684 29.811 24.6881 29.811 24.3421V23.6321H37.199C37.1997 23.6321 37.2002 23.6323 37.2009 23.6323C37.2016 23.6323 37.2023 23.6322 37.203 23.6322C38.112 23.6329 38.8839 24.2296 39.1489 25.0518H37.2014C36.8555 25.0518 36.5751 25.3322 36.5751 25.6781V27.0142C36.5751 28.0963 37.4554 28.9766 38.5375 28.9766H39.2473V31.7323H37.6097C37.0717 30.1791 35.5951 29.0601 33.8611 29.0601C32.1271 29.0601 30.6504 30.179 30.1125 31.7323H29.8109V27.0141C29.8109 26.6683 29.5305 26.3878 29.1846 26.3878C28.8387 26.3878 28.5583 26.6682 28.5583 27.0141V31.7323H15.5638C15.0259 30.179 13.5492 29.06 11.8152 29.06C10.0813 29.06 8.60453 30.1789 8.06664 31.7323H4.46656C4.44352 31.7323 4.42484 31.7136 4.42484 31.6906V30.3127H7.13883C7.48469 30.3127 7.76516 30.0323 7.76516 29.6863C7.76516 29.3404 7.48477 29.06 7.13883 29.06H1.12633C0.780469 29.06 0.5 29.3404 0.5 29.6863C0.5 30.0323 0.780391 30.3127 1.12633 30.3127H3.17227V31.6906C3.17227 32.4043 3.75289 32.9849 4.46664 32.9849H7.84977C7.84961 32.9988 7.84867 33.0127 7.84867 33.0266C7.84867 35.2138 9.62813 36.9932 11.8152 36.9932C14.0023 36.9932 15.7818 35.2138 15.7818 33.0266C15.7818 33.0126 15.7809 32.9988 15.7807 32.9849H29.8955C29.8954 32.9988 29.8945 33.0127 29.8945 33.0266C29.8945 35.2138 31.6739 36.9932 33.861 36.9932C36.0481 36.9932 37.8276 35.2138 37.8276 33.0266C37.8276 33.0126 37.8266 32.9988 37.8265 32.9849H39.8736C40.2195 32.9849 40.4999 32.7045 40.4999 32.3586V25.6781C40.5 24.0285 39.283 22.6581 37.6998 22.4171ZM14.0078 9.45782C11.5373 7.92258 10.8045 7.21626 10.5875 6.93172C10.031 6.20212 10.172 5.15579 10.9016 4.5993C11.2024 4.36993 11.557 4.25907 11.9089 4.25907C12.4106 4.25907 12.907 4.48454 13.2341 4.91344C13.84 5.70782 14.7888 8.38149 15.4152 10.3081C14.9925 10.0592 14.5066 9.7679 14.0078 9.45782ZM17.5682 10.3081C18.1946 8.38149 19.1434 5.7079 19.7492 4.91337C20.3057 4.18376 21.352 4.0429 22.0816 4.5993C22.8113 5.15579 22.9522 6.20212 22.3958 6.93172C22.1788 7.21618 21.446 7.92258 18.9756 9.45774C18.477 9.76774 17.991 10.0591 17.5682 10.3081ZM29.8111 15.6153H34.5292C35.289 15.6153 35.9071 16.2334 35.9071 16.9932V17.0349H29.8111V15.6153ZM29.8111 22.3795V18.2876H35.3763L36.3993 22.3795H29.8111ZM11.8152 35.7406C10.3188 35.7406 9.10125 34.5231 9.10125 33.0266C9.10125 31.5302 10.3188 30.3127 11.8152 30.3127C13.3117 30.3127 14.5292 31.5302 14.5292 33.0266C14.5292 34.5231 13.3117 35.7406 11.8152 35.7406ZM33.8612 35.7406C32.3647 35.7406 31.1472 34.5231 31.1472 33.0266C31.1472 31.5302 32.3647 30.3127 33.8612 30.3127C35.3577 30.3127 36.5752 31.5302 36.5752 33.0266C36.5752 34.5231 35.3577 35.7406 33.8612 35.7406ZM39.2474 27.7239H38.5376C38.1462 27.7239 37.8277 27.4055 37.8277 27.0141V26.3042H39.2473V27.7239H39.2474Z" fill="#FF9052"/>
<path d="M11.8159 31.7324C11.1021 31.7324 10.5215 32.313 10.5215 33.0268C10.5215 33.7405 11.1021 34.3212 11.8159 34.3212C12.5296 34.3212 13.1102 33.7405 13.1102 33.0268C13.1102 32.313 12.5296 31.7324 11.8159 31.7324Z" fill="#FF9052"/>
<path d="M33.8627 31.7314C33.149 31.7314 32.5684 32.3121 32.5684 33.0258C32.5684 33.7396 33.149 34.3202 33.8627 34.3202C34.5765 34.3202 35.1571 33.7396 35.1571 33.0258C35.1571 32.3121 34.5765 31.7314 33.8627 31.7314Z" fill="#FF9052"/>
<path d="M26.5123 29.0605H17.1595C16.8137 29.0605 16.5332 29.3409 16.5332 29.6869C16.5332 30.0328 16.8136 30.3132 17.1595 30.3132H26.5123C26.8582 30.3132 27.1387 30.0328 27.1387 29.6869C27.1387 29.3409 26.8583 29.0605 26.5123 29.0605Z" fill="#FF9052"/>
<path d="M10.477 26.3877H2.46031C2.11445 26.3877 1.83398 26.6681 1.83398 27.014C1.83398 27.36 2.11438 27.6404 2.46031 27.6404H10.477C10.8229 27.6404 11.1034 27.36 11.1034 27.014C11.1034 26.6681 10.8229 26.3877 10.477 26.3877Z" fill="#FF9052"/>
<path d="M10.4802 17.0352H7.80797C7.46211 17.0352 7.18164 17.3155 7.18164 17.6615V23.0059C7.18164 23.3518 7.46203 23.6323 7.80797 23.6323C8.15391 23.6323 8.4343 23.3519 8.4343 23.0059V20.96H9.81219C10.158 20.96 10.4385 20.6796 10.4385 20.3337C10.4385 19.9877 10.1581 19.7073 9.81219 19.7073H8.4343V18.2878H10.4802C10.8261 18.2878 11.1066 18.0074 11.1066 17.6615C11.1065 17.3156 10.8261 17.0352 10.4802 17.0352Z" fill="#FF9052"/>
<path d="M15.4104 21.2527C16.0372 20.8421 16.4523 20.1342 16.4523 19.3307C16.4523 18.0643 15.4222 17.0342 14.1559 17.0342H12.4857C12.1398 17.0342 11.8594 17.3146 11.8594 17.6605V23.005C11.8594 23.3508 12.1398 23.6313 12.4857 23.6313C12.8316 23.6313 13.112 23.3509 13.112 23.005V21.6271H14.1547L15.3048 23.3523C15.4255 23.5333 15.6241 23.6313 15.8265 23.6313C15.9459 23.6313 16.0666 23.5972 16.1733 23.526C16.4612 23.3342 16.5389 22.9453 16.347 22.6575L15.4104 21.2527ZM14.1559 20.3745H13.112V18.2868H14.1559C14.7315 18.2868 15.1997 18.755 15.1997 19.3307C15.1997 19.9063 14.7315 20.3745 14.1559 20.3745Z" fill="#FF9052"/>
<path d="M20.4998 22.3777H18.4538V20.956C18.4677 20.957 18.4815 20.9581 18.4955 20.9581H19.8316C20.1775 20.9581 20.458 20.6777 20.458 20.3318C20.458 19.9859 20.1776 19.7055 19.8316 19.7055H18.4955C18.4814 19.7055 18.4677 19.7066 18.4538 19.7076V18.2859H20.4998C20.8456 18.2859 21.1261 18.0055 21.1261 17.6595C21.1261 17.3137 20.8457 17.0332 20.4998 17.0332H17.8275C17.4816 17.0332 17.2012 17.3136 17.2012 17.6595V23.004C17.2012 23.3498 17.4816 23.6303 17.8275 23.6303H20.4998C20.8456 23.6303 21.1261 23.3499 21.1261 23.004C21.1261 22.658 20.8456 22.3777 20.4998 22.3777Z" fill="#FF9052"/>
<path d="M25.1736 22.3777H23.1277V20.9581H23.8375C24.1834 20.9581 24.4638 20.6777 24.4638 20.3318C24.4638 19.9859 24.1834 19.7055 23.8375 19.7055H23.1277V18.2859H25.1736C25.5195 18.2859 25.7999 18.0055 25.7999 17.6595C25.7999 17.3137 25.5195 17.0332 25.1736 17.0332H22.5013C22.1555 17.0332 21.875 17.3136 21.875 17.6595V23.004C21.875 23.3498 22.1554 23.6303 22.5013 23.6303H25.1736C25.5195 23.6303 25.7999 23.3499 25.7999 23.004C25.7999 22.658 25.5195 22.3777 25.1736 22.3777Z" fill="#FF9052"/>
</g>
<defs>
<clipPath id="clip0_967_1055">
<rect width="40" height="40" fill="white" transform="translate(0.5)"/>
</clipPath>
</defs>
</svg>
