<svg width="38" height="36" viewBox="0 0 38 36" fill="none" xmlns="http://www.w3.org/2000/svg">
<path d="M22.6931 35.9185C21.8477 35.9185 21.0923 35.3006 20.3585 34.7006C19.9102 34.3335 19.2956 33.831 18.9989 33.831C18.7027 33.831 18.0881 34.3335 17.6398 34.7006C16.836 35.3577 15.9243 36.1048 14.9206 35.8748C13.8848 35.6393 13.3777 34.5502 12.9302 33.5898C12.7068 33.1093 12.3685 32.3831 12.1281 32.2668C11.8731 32.1423 11.0814 32.3343 10.5577 32.4602C9.5381 32.7056 8.3831 32.9823 7.56643 32.331C6.74685 31.6764 6.76143 30.4843 6.77518 29.4331C6.78185 28.8968 6.79185 28.0868 6.61935 27.8702C6.44893 27.6568 5.66018 27.4881 5.1381 27.3764C4.1056 27.1556 2.93643 26.9052 2.4781 25.9552C2.02643 25.0198 2.55352 23.9589 3.01768 23.0231C3.25893 22.5381 3.6231 21.8043 3.55935 21.5231C3.50185 21.271 2.87435 20.7839 2.45935 20.4614C1.61893 19.8098 0.666016 19.0698 0.666016 17.9998C0.666016 16.9298 1.61893 16.1902 2.45977 15.5377C2.87477 15.2156 3.50227 14.7285 3.55977 14.476C3.62352 14.1948 3.25935 13.461 3.01852 12.9756C2.55393 12.0398 2.02727 10.9793 2.47935 10.0431C2.93768 9.09351 4.10685 8.8431 5.13893 8.62226C5.66102 8.5106 6.44977 8.34185 6.61977 8.12893C6.7931 7.91185 6.7831 7.10143 6.77643 6.56518C6.7631 5.51393 6.74852 4.32226 7.56768 3.66768C8.38393 3.01601 9.53977 3.29351 10.5589 3.53851C11.0835 3.66435 11.8743 3.85476 12.1289 3.73226C12.3698 3.61601 12.7077 2.89018 12.9314 2.40935C13.3785 1.44851 13.8852 0.359762 14.921 0.124345C15.9235 -0.103155 16.8368 0.641012 17.6402 1.29851C18.0889 1.6656 18.7035 2.1681 18.9998 2.1681C19.296 2.1681 19.9106 1.6656 20.3589 1.29893C21.1631 0.641012 22.0744 -0.104821 23.0785 0.124345C24.1139 0.359762 24.621 1.44893 25.0685 2.40976C25.2923 2.89018 25.6302 3.61643 25.871 3.73268C26.1264 3.8556 26.9169 3.66476 27.4406 3.53893C28.4602 3.29393 29.6156 3.01643 30.4323 3.6681C31.2519 4.32268 31.2373 5.51435 31.2235 6.56601C31.2169 7.10226 31.2069 7.91268 31.3793 8.12893C31.5498 8.34185 32.3385 8.51101 32.8606 8.62268C33.8931 8.84351 35.0623 9.09351 35.5206 10.0435C35.9723 10.9793 35.4452 12.0402 34.981 12.976C34.7398 13.4614 34.3756 14.1948 34.4394 14.476C34.4968 14.7285 35.1244 15.2156 35.5393 15.5377C36.3798 16.1902 37.3327 16.9298 37.3327 17.9998C37.3327 19.0698 36.3798 19.8093 35.5389 20.4618C35.1239 20.7839 34.4964 21.2706 34.4389 21.5239C34.3752 21.8052 34.7393 22.5385 34.9802 23.0239C35.4448 23.9598 35.9714 25.0202 35.5194 25.9564C35.061 26.906 33.8918 27.1564 32.8598 27.3768C32.3377 27.4889 31.5489 27.6577 31.3785 27.8706C31.2056 28.0877 31.2156 28.8981 31.2223 29.4343C31.2356 30.4852 31.2502 31.6768 30.431 32.3314C29.6148 32.9831 28.4589 32.7052 27.4398 32.4606C26.9152 32.3348 26.1243 32.1435 25.8698 32.2673C25.6289 32.3831 25.291 33.1093 25.0673 33.5898C24.6202 34.551 24.1135 35.6398 23.0777 35.8752C22.9477 35.9048 22.8194 35.9185 22.6931 35.9185ZM11.8702 30.5623C12.2156 30.5623 12.5469 30.6181 12.8523 30.7652C13.6285 31.1393 14.0419 32.0273 14.4414 32.886C14.6393 33.311 15.051 34.1952 15.2898 34.2493C15.5118 34.2885 16.2368 33.6939 16.5843 33.4098C17.3335 32.7973 18.1077 32.1639 18.9989 32.1639C19.8902 32.1639 20.6648 32.7977 21.4135 33.4098C21.761 33.6939 22.4643 34.2768 22.7089 34.2493C22.9468 34.1948 23.3589 33.311 23.5564 32.886C23.9556 32.0273 24.3689 31.1402 25.1456 30.7652C25.9356 30.3839 26.8973 30.616 27.8285 30.8398C28.2764 30.9473 29.2102 31.1718 29.3902 31.0285C29.5731 30.8827 29.561 29.9181 29.5552 29.4548C29.5431 28.4998 29.5306 27.5127 30.0756 26.8302C30.6173 26.1518 31.5794 25.946 32.5102 25.7468C32.966 25.6493 33.9139 25.4464 34.0177 25.2318C34.1143 25.0306 33.6902 24.1756 33.4864 23.7648C33.0593 22.9043 32.6173 22.0143 32.8131 21.1543C33.0027 20.3202 33.7723 19.7227 34.516 19.1452C34.9185 18.8335 35.666 18.2535 35.666 17.9998C35.666 17.746 34.9185 17.166 34.5168 16.8539C33.7727 16.2764 33.0031 15.6793 32.8135 14.8448C32.6181 13.9848 33.0602 13.0948 33.4873 12.2343C33.691 11.8235 34.1156 10.9689 34.0185 10.7673C33.9148 10.5523 32.9669 10.3498 32.5114 10.2523C31.5806 10.0531 30.6181 9.84726 30.0764 9.16935C29.5319 8.48726 29.5443 7.49976 29.5564 6.54518C29.5623 6.08185 29.5744 5.11685 29.3914 4.97101C29.2123 4.82768 28.2781 5.05226 27.8294 5.15976C26.8985 5.38351 25.9368 5.61518 25.1464 5.23393C24.3702 4.85935 23.9569 3.97185 23.5573 3.11351C23.3594 2.68851 22.9481 1.80435 22.7089 1.75018C22.4798 1.7106 21.7614 2.3056 21.4139 2.58935C20.6652 3.20226 19.891 3.8356 18.9998 3.8356C18.1085 3.8356 17.3344 3.20185 16.5852 2.58935C16.2377 2.30518 15.5127 1.7131 15.2898 1.74976C15.0514 1.80393 14.6393 2.6881 14.4418 3.1131C14.0423 3.97143 13.6293 4.85893 12.8531 5.23351C12.0631 5.61435 11.1014 5.38351 10.1698 5.15935C9.72185 5.05143 8.78727 4.82726 8.6081 4.97018C8.42518 5.11643 8.43727 6.08101 8.4431 6.54435C8.45518 7.49935 8.46768 8.48685 7.92268 9.16851C7.38102 9.84685 6.41893 10.0527 5.4881 10.2518C5.03227 10.3493 4.08435 10.5523 3.9806 10.7668C3.88393 10.9681 4.3081 11.8231 4.51185 12.2339C4.93893 13.0943 5.38102 13.9843 5.18518 14.8443C4.9956 15.6785 4.22602 16.276 3.48227 16.8535C3.08018 17.166 2.33268 17.746 2.33268 17.9998C2.33268 18.2535 3.08018 18.8339 3.48185 19.1456C4.22602 19.7231 4.9956 20.3198 5.18518 21.1543C5.3806 22.0143 4.93852 22.9039 4.51143 23.7648C4.30768 24.1756 3.8831 25.0302 3.98018 25.2318C4.08393 25.4473 5.03185 25.6498 5.48768 25.7473C6.4181 25.9464 7.3806 26.1523 7.92227 26.8306C8.46685 27.5127 8.45435 28.4998 8.44227 29.4548C8.43643 29.9181 8.42435 30.8831 8.60727 31.0289C8.78643 31.1702 9.7206 30.9477 10.1693 30.8398C10.7398 30.7023 11.3227 30.5623 11.8702 30.5623ZM13.7552 24.4223L25.4219 12.7556C25.7473 12.4302 25.7473 11.9027 25.4219 11.5773C25.0964 11.2518 24.5689 11.2518 24.2435 11.5773L12.5768 23.2439C12.2514 23.5693 12.2514 24.0968 12.5768 24.4223C12.7398 24.5852 12.9527 24.6664 13.166 24.6664C13.3793 24.6664 13.5923 24.5852 13.7552 24.4223ZM14.8327 16.7498C13.2248 16.7498 11.916 15.4414 11.916 13.8331C11.916 12.2248 13.2248 10.9164 14.8327 10.9164C16.4406 10.9164 17.7493 12.2248 17.7493 13.8331C17.7493 15.4414 16.4406 16.7498 14.8327 16.7498ZM14.8327 12.5831C14.1435 12.5831 13.5827 13.1439 13.5827 13.8331C13.5827 14.5223 14.1435 15.0831 14.8327 15.0831C15.5218 15.0831 16.0827 14.5223 16.0827 13.8331C16.0827 13.1439 15.5218 12.5831 14.8327 12.5831ZM23.166 25.0831C21.5581 25.0831 20.2493 23.7743 20.2493 22.1664C20.2493 20.5585 21.5581 19.2498 23.166 19.2498C24.7739 19.2498 26.0827 20.5585 26.0827 22.1664C26.0827 23.7743 24.7739 25.0831 23.166 25.0831ZM23.166 20.9164C22.4769 20.9164 21.916 21.4773 21.916 22.1664C21.916 22.8556 22.4769 23.4164 23.166 23.4164C23.8552 23.4164 24.416 22.8556 24.416 22.1664C24.416 21.4773 23.8552 20.9164 23.166 20.9164Z" fill="#FF9052"/>
</svg>
