<svg width="36" height="40" viewBox="0 0 36 40" fill="none" xmlns="http://www.w3.org/2000/svg">
<path d="M34.4385 6.90907C28.935 5.4011 23.3991 3.05306 18.4294 0.118847C18.1654 -0.0370116 17.8378 -0.0370116 17.5739 0.118847C12.4608 3.13736 7.22412 5.35837 1.56437 6.90907C1.19875 7.00915 0.945312 7.34149 0.945312 7.72063V16.318C0.945312 25.1713 5.02959 31.0316 8.45599 34.3887C12.1447 38.0032 16.4416 40.002 18.0017 40.002C19.5616 40.002 23.8584 38.0032 27.5472 34.3887C30.9735 31.0317 35.0575 25.1714 35.0575 16.318V7.72055C35.0575 7.34149 34.8041 7.00915 34.4385 6.90907ZM33.3747 16.3179C33.3747 24.5868 29.5653 30.0552 26.3694 33.1866C22.7419 36.7409 18.8636 38.319 18.0017 38.319C17.1397 38.319 13.2611 36.7409 9.63364 33.1866C6.43779 30.0551 2.6282 24.5868 2.6282 16.3179V8.3593C8.04052 6.82258 13.081 4.67798 18.0018 1.81838C22.7998 4.60212 28.0917 6.85337 33.3747 8.35899V16.3179Z" fill="#FF9052"/>
<path d="M10.5438 8.26471C10.3735 7.83229 9.88498 7.61987 9.45248 7.79026C7.94936 8.38253 6.40655 8.92768 4.86695 9.41065C4.51609 9.52081 4.27734 9.8458 4.27734 10.2135V13.4628C4.27734 13.9274 4.65414 14.3042 5.11875 14.3042C5.58335 14.3042 5.96015 13.9274 5.96015 13.4628V10.8284C7.34132 10.3815 8.721 9.88721 10.0694 9.35588C10.5018 9.18565 10.7142 8.69713 10.5438 8.26471Z" fill="#FF9052"/>
<path d="M12.1422 8.42438C12.255 8.42438 12.3697 8.40165 12.4796 8.35368L12.495 8.34696C12.9207 8.1604 13.1125 7.66485 12.9259 7.23931C12.7392 6.8136 12.2408 6.62103 11.8156 6.80743L11.802 6.81329C11.3761 6.99931 11.1837 7.49446 11.3697 7.92024C11.5078 8.23634 11.8175 8.42438 12.1422 8.42438Z" fill="#FF9052"/>
<path d="M28.0266 27.1332C27.6378 26.8791 27.1164 26.9883 26.862 27.3773C26.1686 28.4386 25.3552 29.4548 24.4439 30.3976C23.6945 31.1727 22.8825 31.8952 22.0304 32.5448C21.661 32.8265 21.5899 33.3545 21.8715 33.7241C22.0372 33.9412 22.2878 34.0554 22.5412 34.0554C22.7192 34.0554 22.8985 33.9993 23.0508 33.883C23.9699 33.1822 24.8457 32.403 25.6537 31.5672C26.6389 30.5482 27.5194 29.4482 28.2708 28.2978C28.5251 27.9087 28.4156 27.3873 28.0266 27.1332Z" fill="#FF9052"/>
<path d="M20.0757 33.8644L20.0275 33.8929C19.6254 34.1257 19.4879 34.6404 19.7207 35.0425C19.8768 35.3121 20.1592 35.4625 20.4497 35.4625C20.5927 35.4625 20.7378 35.4261 20.8704 35.3491L20.9261 35.3164C21.3271 35.0815 21.4618 34.5661 21.227 34.1651C20.992 33.7643 20.4765 33.6298 20.0757 33.8644Z" fill="#FF9052"/>
<path d="M12.267 18.2848C11.7504 17.768 11.0632 17.4837 10.3325 17.4837C9.60169 17.4837 8.91451 17.7681 8.39763 18.2848C7.331 19.3516 7.331 21.0876 8.39763 22.1544L13.3661 27.1226C13.8828 27.6392 14.5699 27.9236 15.3007 27.9236C16.0316 27.9236 16.7187 27.6392 17.2355 27.1225L27.6074 16.7505C28.674 15.6834 28.674 13.9477 27.6072 12.8812C27.0905 12.3645 26.4034 12.0801 25.6725 12.0801C24.9416 12.0801 24.2545 12.3645 23.7377 12.8812L15.3007 21.3183L12.267 18.2848ZM24.9277 14.0712C25.1266 13.8723 25.3912 13.7629 25.6726 13.7629C25.9541 13.7629 26.2185 13.8723 26.4175 14.0712C26.828 14.4817 26.828 15.15 26.4173 15.5607L16.0456 25.9326C15.8467 26.1314 15.5821 26.2408 15.3007 26.2408C15.0193 26.2408 14.7547 26.1314 14.5558 25.9326L9.58755 20.9644C9.17685 20.5537 9.17685 19.8855 9.58739 19.4749C9.7863 19.2761 10.0509 19.1665 10.3324 19.1665C10.6139 19.1665 10.8783 19.2759 11.0772 19.4748L14.7057 23.1033C14.8635 23.2611 15.0775 23.3497 15.3007 23.3497C15.5239 23.3497 15.7378 23.2612 15.8955 23.1033L24.9277 14.0712Z" fill="#FF9052"/>
</svg>
