<svg width="38" height="32" viewBox="0 0 38 32" fill="none" xmlns="http://www.w3.org/2000/svg">
<path d="M1.93598 15.2338C2.67324 16.1741 3.97817 16.4235 5.00731 15.8336L7.67543 19.2338L5.91254 20.6605C5.03121 21.3737 4.89457 22.664 5.60824 23.546C5.85121 23.8461 6.16543 24.0485 6.50442 24.1713C5.83028 24.9073 5.77027 26.0435 6.41652 26.8421C7.04348 27.6167 8.13012 27.8224 8.99215 27.3526C9.03715 27.7328 9.18387 28.0944 9.43051 28.3992C10.1444 29.2812 11.4393 29.4133 12.316 28.7035L12.5306 28.5299C12.5569 28.9394 12.7042 29.3306 12.9677 29.6561C13.663 30.5161 14.9242 30.6478 15.7816 29.9529L16.1182 29.6806L16.5043 30.1727C17.301 31.1886 18.7682 31.3631 19.7811 30.5682C20.215 30.2279 20.5085 29.7562 20.6221 29.2235C21.3651 29.5081 22.2303 29.4053 22.8996 28.8798C23.2957 28.5689 23.575 28.1485 23.707 27.6722C24.491 28.0678 25.4676 28.0034 26.2021 27.4263C26.7485 26.9976 27.0519 26.3721 27.0903 25.7281C27.7766 25.8496 28.4342 25.675 28.9522 25.2685C29.9646 24.4742 30.1421 23.0038 29.3507 21.9949L28.1529 20.4447C28.0379 20.4422 27.9248 20.4192 27.8158 20.3855L32.8402 16.218C33.6842 16.6047 34.6216 16.4724 35.31 15.9393L36.8261 14.7641C37.3325 14.372 37.6559 13.8058 37.7366 13.1703C37.8171 12.5349 37.6453 11.906 37.2532 11.4L29.8639 1.86369C29.0541 0.818691 27.5451 0.627207 26.5001 1.43689L24.9834 2.61189C24.4771 3.00432 24.1539 3.57018 24.0732 4.20564C23.9927 4.84111 24.1645 5.46994 24.5566 5.97596L25.1188 6.7015L23.5923 8.32564L16.2236 9.7076L14.9309 8.06025C15.8894 7.17932 15.95 5.78182 15.1997 4.82619L14.0142 3.31518C13.1975 2.27361 11.691 2.09096 10.6493 2.90932L1.15606 10.3578C0.116759 11.1738 -0.0652723 12.6835 0.750431 13.7231L1.93598 15.2338ZM6.64996 21.5718L9.29762 19.4291C9.67121 19.1271 10.2252 19.1776 10.5344 19.5593C10.8396 19.9363 10.7808 20.491 10.4042 20.7961L7.75653 22.9388C7.37949 23.2433 6.82652 23.1874 6.51973 22.8086C6.21457 22.4317 6.27324 21.877 6.64996 21.5718ZM7.32801 26.1049C7.02285 25.7279 7.0816 25.1731 7.45824 24.8681L11.286 21.7702C11.6596 21.4682 12.2136 21.5187 12.5228 21.9004C12.8284 22.2783 12.7702 22.8313 12.3925 23.1372L8.56481 26.2351C8.18754 26.5394 7.63285 26.4813 7.32801 26.1049ZM11.5789 27.7922C11.1975 28.0997 10.6461 28.0374 10.3421 27.662C10.0369 27.285 10.0957 26.7303 10.4723 26.4252L13.12 24.2824C13.4936 23.9805 14.0475 24.031 14.3568 24.4127C14.6619 24.7896 14.6032 25.3444 14.2265 25.6495L11.5789 27.7922ZM13.8793 28.9188C13.5917 28.5631 13.6461 28.0414 14.0021 27.7535L15.1902 26.7921C15.5476 26.5028 16.0696 26.5617 16.3554 26.9146C16.6428 27.2698 16.5875 27.7927 16.2324 28.0801L15.0443 29.0416C14.694 29.3253 14.1706 29.279 13.8793 28.9188ZM28.4258 22.715C28.8211 23.2191 28.7327 23.9506 28.2289 24.3463C27.7184 24.7466 26.9903 24.6496 26.5979 24.1493L23.361 20.0245C23.1606 19.7695 22.7922 19.7253 22.5381 19.9252C22.2833 20.1249 22.2389 20.4936 22.4388 20.7481L25.6757 24.8729C26.0718 25.3779 25.984 26.1079 25.4788 26.5042C24.9747 26.8992 24.2437 26.8107 23.8479 26.3072L20.6111 22.1824C20.4111 21.9271 20.0424 21.8835 19.7882 22.0831C19.5335 22.2828 19.4891 22.6513 19.6889 22.906L22.3729 26.3267C22.7682 26.8308 22.68 27.5621 22.1763 27.9577C21.6752 28.3511 20.9439 28.2693 20.5454 27.761L17.4927 23.8706C17.2923 23.6156 16.9245 23.5721 16.6698 23.7713C16.415 23.971 16.3707 24.3395 16.5702 24.5942L19.2545 28.0149C19.6506 28.5199 19.5629 29.2495 19.0579 29.6462C18.5544 30.0415 17.8239 29.9555 17.4269 29.4492L17.0251 28.9372C17.8283 28.2335 17.9442 27.0144 17.2669 26.177C16.8607 25.6756 16.2599 25.4298 15.6597 25.4445C15.8221 24.7664 15.6512 24.1487 15.2682 23.6753C14.8982 23.2187 14.3713 22.9671 13.8271 22.9258C13.9863 22.2521 13.8179 21.6371 13.4343 21.1631C13.0741 20.718 12.5479 20.4232 11.8741 20.412C11.9664 19.7851 11.7857 19.2421 11.4458 18.822C10.7407 17.9514 9.46715 17.8117 8.58887 18.499L5.94746 15.1327L14.02 8.79822L15.2373 10.3498C13.5432 12.6166 12.8323 15.6332 13.6918 17.1309C14.5768 18.6724 16.7915 18.2104 17.9126 16.7307L19.7906 14.2631L21.5795 14.5642L22.2104 14.671C22.6173 15.1977 20.7403 12.7681 26.2091 19.8467C26.2099 19.8477 26.2109 19.8484 26.2117 19.8493L28.4258 22.715ZM25.7012 3.53869L27.2179 2.36369C27.7581 1.94525 28.5262 2.0515 28.9371 2.5815L36.3267 12.1178C36.5273 12.3766 36.6149 12.698 36.5737 13.0226C36.5325 13.3474 36.3673 13.6368 36.1083 13.8372L34.5921 15.0124C34.058 15.4266 33.2869 15.3281 32.8728 14.7943C24.3577 2.86564 27.2946 6.97994 26.6592 6.08986C26.5093 5.87729 26.2325 5.78182 25.9679 5.8833L25.4834 5.25807C25.0695 4.72369 25.1671 3.9526 25.7012 3.53869ZM23.9964 9.44275C24.1186 9.41986 24.2305 9.35861 24.3155 9.26814L25.8458 7.63979C26.4614 8.44377 23.6157 4.72728 31.8666 15.5028L27.3275 19.2676C21.4082 11.7538 23.4329 14.3238 22.9983 13.7723C22.9082 13.6555 22.7771 13.5771 22.6317 13.5524L19.636 13.0481C19.4216 13.0126 19.204 13.0978 19.0721 13.2713L16.9789 16.0217C16.3906 16.7981 15.1403 17.2988 14.7088 16.5473C14.1371 15.5515 14.7145 12.9021 16.3008 10.886L23.9964 9.44275ZM1.87988 11.2801L11.373 3.8315C11.9028 3.41541 12.6726 3.50471 13.0918 4.03877L14.2774 5.5501C14.6949 6.08189 14.6027 6.85127 14.0701 7.26893L4.57731 14.7178C4.03738 15.1413 3.26965 15.0349 2.85817 14.5103L1.67262 12.9996C1.2559 12.4682 1.34895 11.6969 1.87988 11.2801Z" fill="#FF9052" stroke="#FF9052" stroke-width="0.1"/>
</svg>
