<svg width="20" height="13" viewBox="0 0 20 13" fill="none" xmlns="http://www.w3.org/2000/svg">
<path d="M19.2608 8.6925C19.2153 7.64569 19.0333 6.48509 18.7602 5.39276C18.4871 4.34594 18.1457 3.36739 17.7361 2.61642C16.1431 -0.182676 14.4136 0.249704 12.3427 0.795869C11.6828 0.955167 10.9773 1.13722 10.2491 1.20549H10.0215C9.29332 1.13722 8.58786 0.955167 7.92791 0.795869C5.85703 0.272461 4.12751 -0.182676 2.53453 2.63917C2.12491 3.39015 1.7608 4.3687 1.51047 5.41551C1.23739 6.50784 1.05533 7.66844 1.00982 8.71526C0.964307 9.87586 1.07809 10.7179 1.32842 11.3095C1.57874 11.8557 1.94285 12.1971 2.42075 12.3336C2.85313 12.4474 3.35378 12.4019 3.87719 12.1743C4.7647 11.8102 5.78876 11.0365 6.79006 10.1034C7.49553 9.42072 8.81542 9.07937 10.1353 9.07937C11.4552 9.07937 12.7751 9.42072 13.4806 10.1034C14.4819 11.0365 15.5059 11.8102 16.3935 12.1743C16.9169 12.3791 17.4175 12.4474 17.8499 12.3336C18.305 12.1971 18.6919 11.8785 18.9422 11.2868C19.1926 10.7179 19.3063 9.87586 19.2608 8.6925ZM18.1685 10.9682C18.032 11.2868 17.8499 11.4688 17.6223 11.5371C17.372 11.6054 17.0534 11.5599 16.6893 11.4233C15.8928 11.1047 14.9598 10.3993 14.0495 9.5345C13.1847 8.66974 11.66 8.23736 10.1353 8.23736C8.61061 8.23736 7.0859 8.66974 6.19838 9.48899C5.26535 10.3538 4.33232 11.082 3.55859 11.3778C3.19448 11.5144 2.87588 11.5826 2.62556 11.4916C2.39799 11.4233 2.21593 11.2413 2.07939 10.9227C1.89734 10.4903 1.80631 9.78483 1.85182 8.73802C1.89734 7.75947 2.05664 6.64438 2.32972 5.59757C2.58004 4.61902 2.89864 3.70875 3.28551 3.02604C4.53713 0.773112 5.99357 1.13722 7.72309 1.59236C8.42856 1.77441 9.15678 1.95647 9.95327 2.02474C9.97602 2.02474 9.97602 2.02474 9.99878 2.02474H10.2491C10.2719 2.02474 10.2719 2.02474 10.2946 2.02474C11.1139 1.95647 11.8421 1.77441 12.5476 1.59236C14.2771 1.15998 15.7335 0.773112 16.9851 3.02604C17.372 3.70875 17.6906 4.59626 17.9409 5.59757C18.1913 6.64438 18.3733 7.73671 18.4188 8.73802C18.4643 9.78483 18.3733 10.4903 18.1685 10.9682Z" fill="#616161" stroke="#616161" stroke-width="0.2"/>
<path d="M8.04338 4.25411C7.81581 4.0493 7.54273 3.89 7.22414 3.86725C7.20138 3.57141 7.06484 3.27557 6.86003 3.07076L6.83727 3.048C6.58694 2.79767 6.26835 2.66113 5.90424 2.66113C5.54013 2.66113 5.19877 2.82043 4.97121 3.048C4.76639 3.25281 4.6071 3.54865 4.58434 3.86725C4.26574 3.89 3.99266 4.02654 3.76509 4.23136L3.74234 4.25411C3.49201 4.50444 3.35547 4.82303 3.35547 5.18714C3.35547 5.55125 3.51477 5.89261 3.74234 6.12018C3.9699 6.34774 4.24299 6.48428 4.58434 6.50704C4.6071 6.82564 4.74364 7.12148 4.97121 7.32629C5.22153 7.57661 5.54013 7.71316 5.90424 7.71316C6.26835 7.71316 6.6097 7.55386 6.83727 7.32629C7.04208 7.09872 7.20138 6.82564 7.22414 6.50704C7.54273 6.48428 7.83857 6.34774 8.04338 6.12018C8.29371 5.86985 8.43025 5.55125 8.43025 5.18714C8.43025 4.82303 8.27095 4.48168 8.04338 4.25411ZM7.47446 5.5285C7.38343 5.61952 7.26965 5.66504 7.13311 5.66504H6.81451C6.58694 5.66504 6.38213 5.84709 6.38213 6.09742V6.39326C6.38213 6.5298 6.33662 6.64358 6.24559 6.73461C6.15456 6.82564 6.04078 6.87115 5.90424 6.87115C5.7677 6.87115 5.65391 6.82564 5.56288 6.73461C5.47186 6.64358 5.42634 6.5298 5.42634 6.39326V6.07466C5.42634 5.84709 5.24429 5.64228 4.99396 5.64228H4.67537C4.53883 5.64228 4.42504 5.59677 4.33401 5.50574C4.26574 5.43747 4.19747 5.32369 4.19747 5.18714C4.19747 5.0506 4.24299 4.93682 4.33401 4.84579C4.33401 4.84579 4.33401 4.84579 4.35677 4.82303C4.4478 4.75476 4.56158 4.70925 4.67537 4.70925H4.99396C5.22153 4.70925 5.42634 4.5272 5.42634 4.27687V3.95827C5.42634 3.82173 5.47186 3.70795 5.56288 3.61692C5.65391 3.52589 5.7677 3.48038 5.90424 3.48038C6.04078 3.48038 6.15456 3.52589 6.24559 3.61692C6.24559 3.61692 6.24559 3.61692 6.26835 3.63968C6.33662 3.73071 6.38213 3.84449 6.38213 3.95827V4.27687C6.38213 4.50444 6.56419 4.70925 6.81451 4.70925H7.13311C7.26965 4.70925 7.38343 4.75476 7.47446 4.84579C7.56549 4.93682 7.611 5.0506 7.611 5.18714C7.611 5.32369 7.56549 5.43747 7.47446 5.5285Z" fill="#616161" stroke="#616161" stroke-width="0.2"/>
<path d="M14.0953 4.36837C14.5352 4.36837 14.8918 4.01177 14.8918 3.57188C14.8918 3.13199 14.5352 2.77539 14.0953 2.77539C13.6554 2.77539 13.2988 3.13199 13.2988 3.57188C13.2988 4.01177 13.6554 4.36837 14.0953 4.36837Z" fill="#616161" stroke="#616161" stroke-width="0.2"/>
<path d="M14.0953 7.59982C14.5352 7.59982 14.8918 7.24322 14.8918 6.80333C14.8918 6.36344 14.5352 6.00684 14.0953 6.00684C13.6554 6.00684 13.2988 6.36344 13.2988 6.80333C13.2988 7.24322 13.6554 7.59982 14.0953 7.59982Z" fill="#616161" stroke="#616161" stroke-width="0.2"/>
<path d="M12.4781 5.98556C12.918 5.98556 13.2746 5.62896 13.2746 5.18907C13.2746 4.74918 12.918 4.39258 12.4781 4.39258C12.0382 4.39258 11.6816 4.74918 11.6816 5.18907C11.6816 5.62896 12.0382 5.98556 12.4781 5.98556Z" fill="#616161" stroke="#616161" stroke-width="0.2"/>
<path d="M15.7125 5.98556C16.1524 5.98556 16.509 5.62896 16.509 5.18907C16.509 4.74918 16.1524 4.39258 15.7125 4.39258C15.2726 4.39258 14.916 4.74918 14.916 5.18907C14.916 5.62896 15.2726 5.98556 15.7125 5.98556Z" fill="#616161" stroke="#616161" stroke-width="0.2"/>
</svg>
