<svg width="18" height="21" viewBox="0 0 18 21" fill="none" xmlns="http://www.w3.org/2000/svg">
<path d="M8.78906 0.393555C3.94277 0.393555 0 4.33633 0 9.18262C0 9.71969 0 13.8743 0 13.9482C0 14.9175 0.788555 15.7061 1.75781 15.7061H2.44453C2.68641 16.388 3.3377 16.8779 4.10156 16.8779C5.07082 16.8779 5.85938 16.0894 5.85938 15.1201V10.3545C5.85938 9.38523 5.07082 8.59668 4.10156 8.59668C3.3377 8.59668 2.68641 9.0866 2.44453 9.76855H1.75781C1.55238 9.76855 1.35527 9.8043 1.17188 9.86934V9.18262C1.17188 4.9825 4.58895 1.56543 8.78906 1.56543C12.9892 1.56543 16.4062 4.9825 16.4062 9.18262V9.86934C16.2229 9.8043 16.0257 9.76855 15.8203 9.76855H15.1336C14.8917 9.0866 14.2404 8.59668 13.4766 8.59668C12.5073 8.59668 11.7188 9.38523 11.7188 10.3545V15.1201C11.7188 16.0894 12.5073 16.8779 13.4766 16.8779C13.6539 16.8779 13.8252 16.8513 13.9868 16.8022C13.7676 17.5234 13.0966 18.0498 12.3047 18.0498H10.4461C10.2042 17.3679 9.55293 16.8779 8.78906 16.8779C7.8198 16.8779 7.03125 17.6665 7.03125 18.6357C7.03125 19.605 7.8198 20.3936 8.78906 20.3936C9.55293 20.3936 10.2042 19.9036 10.4461 19.2217H12.3047C13.9201 19.2217 15.2344 17.9074 15.2344 16.292V15.7061H15.8203C16.7896 15.7061 17.5781 14.9175 17.5781 13.9482C17.5781 13.8754 17.5781 9.71926 17.5781 9.18262C17.5781 4.33633 13.6354 0.393555 8.78906 0.393555ZM3.51562 10.3545C3.51562 10.0314 3.77848 9.76855 4.10156 9.76855C4.42465 9.76855 4.6875 10.0314 4.6875 10.3545V15.1201C4.6875 15.4432 4.42465 15.7061 4.10156 15.7061C3.77848 15.7061 3.51562 15.4432 3.51562 15.1201V10.3545ZM1.75781 10.9404H2.34375V14.5342H1.75781C1.43473 14.5342 1.17188 14.2713 1.17188 13.9482V11.5264C1.17188 11.2033 1.43473 10.9404 1.75781 10.9404ZM8.78906 19.2217C8.46598 19.2217 8.20312 18.9588 8.20312 18.6357C8.20312 18.3127 8.46598 18.0498 8.78906 18.0498C9.11215 18.0498 9.375 18.3127 9.375 18.6357C9.375 18.9588 9.11215 19.2217 8.78906 19.2217ZM14.0625 15.1201C14.0625 15.4432 13.7996 15.7061 13.4766 15.7061C13.1535 15.7061 12.8906 15.4432 12.8906 15.1201V10.3545C12.8906 10.0314 13.1535 9.76855 13.4766 9.76855C13.7996 9.76855 14.0625 10.0314 14.0625 10.3545V15.1201ZM16.4062 13.9482C16.4062 14.2713 16.1434 14.5342 15.8203 14.5342H15.2344V10.9404H15.8203C16.1434 10.9404 16.4062 11.2033 16.4062 11.5264V13.9482Z" fill="#595959"/>
</svg>
