<svg width="21" height="18" viewBox="0 0 21 18" fill="none" xmlns="http://www.w3.org/2000/svg">
<path d="M18.1644 2.07628C16.3771 0.494546 14.0715 0.704542 12.387 2.38905L10.3317 4.43994L8.28076 2.38905C6.59626 0.704542 4.28621 0.494546 2.50341 2.07628C2.04871 2.48002 1.68121 2.97232 1.42341 3.52304C1.16561 4.07376 1.02292 4.6713 1.00409 5.27909C0.985271 5.88687 1.09071 6.4921 1.31394 7.05771C1.53717 7.62333 1.87349 8.13744 2.30233 8.56855L10.287 17L10.4434 16.8391L10.4925 16.8883L18.3654 8.56855C18.7943 8.13744 19.1306 7.62333 19.3538 7.05771C19.5771 6.4921 19.6825 5.88687 19.6637 5.27909C19.6449 4.6713 19.5022 4.07376 19.2444 3.52304C18.9866 2.97232 18.6191 2.48002 18.1644 2.07628Z" stroke="#121328" stroke-width="1.5" stroke-linecap="round" stroke-linejoin="round"/>
</svg>
