<svg width="16" height="21" viewBox="0 0 16 21" fill="none" xmlns="http://www.w3.org/2000/svg">
<path d="M2.96094 12.553C2.74523 12.553 2.57031 12.7279 2.57031 12.9436C2.57031 13.1593 2.74523 13.3342 2.96094 13.3342H3.74539C3.96109 13.3342 4.13602 13.1593 4.13602 12.9436V10.9824C4.13602 10.7667 3.96109 10.5918 3.74539 10.5918H2.96094C2.74523 10.5918 2.57031 10.7667 2.57031 10.9824C2.57031 11.1982 2.74523 11.373 2.96094 11.373H3.35477V12.5529L2.96094 12.553Z" fill="white"/>
<path d="M11.3922 0.393555C9.91203 0.393555 8.61203 1.17887 7.88645 2.35465H1.39062C1.17492 2.35465 1 2.52953 1 2.74527V19.2185C1 19.4342 1.17492 19.6091 1.39062 19.6091H1.78445V20.0029C1.78445 20.2186 1.95937 20.3936 2.17508 20.3936C2.39078 20.3936 2.5657 20.2186 2.5657 20.0029V19.6091H10.0211V20.0029C10.0211 20.2186 10.1959 20.3936 10.4117 20.3936C10.6274 20.3936 10.8023 20.2186 10.8023 20.0029V19.6091H11.1961C11.4118 19.6091 11.5868 19.4342 11.5868 19.2185V8.62223C13.7668 8.52031 15.5089 6.715 15.5089 4.51023C15.509 2.24027 13.6622 0.393555 11.3922 0.393555ZM1.78125 3.1359H7.51172C6.90957 4.83125 7.47762 6.75555 8.98227 7.8457H1.78125V3.1359ZM10.8055 18.8279H1.78125V18.0402H10.8055V18.8279H10.8055ZM10.8055 17.259H1.78125V8.62695H10.8055V17.259H10.8055ZM11.3922 7.8457C9.55305 7.8457 8.05676 6.34941 8.05676 4.51023C8.05676 2.67105 9.55305 1.1748 11.3922 1.1748C13.2314 1.1748 14.7277 2.67109 14.7277 4.51027C14.7277 6.34945 13.2314 7.8457 11.3922 7.8457Z" fill="white" stroke="white" stroke-width="0.3"/>
<path d="M12.379 4.79088L11.2769 3.9208L12.379 3.0508C12.5483 2.91713 12.5772 2.6715 12.4435 2.50216C12.3099 2.33283 12.0642 2.3038 11.8949 2.43763L10.4044 3.6142C10.2071 3.76994 10.2058 4.07056 10.4044 4.22736L11.5066 5.09744L10.4044 5.96755C10.2351 6.10123 10.2062 6.34689 10.3399 6.51619C10.4733 6.68517 10.719 6.71463 10.8885 6.58072L12.379 5.404C12.4728 5.32994 12.5276 5.21697 12.5276 5.0974C12.5275 4.97791 12.4728 4.86494 12.379 4.79088Z" fill="white"/>
</svg>
