<svg width="16" height="21" viewBox="0 0 16 21" fill="none" xmlns="http://www.w3.org/2000/svg">
<path d="M2.27923 13.7733C2.06989 13.7733 1.86235 13.6815 1.72088 13.5054C-0.195633 11.1116 -0.5425 7.7955 0.837107 5.05736C1.01429 4.7055 1.44332 4.56261 1.79697 4.74086C2.1492 4.9184 2.29102 5.34814 2.11348 5.70037C0.984641 7.94053 1.26864 10.654 2.8365 12.6123C3.08299 12.9203 3.03333 13.37 2.72505 13.6165C2.59359 13.7219 2.43605 13.7733 2.27923 13.7733Z" fill="#FFB300"/>
<path d="M2.70869 4.35081C2.52437 4.35081 2.34039 4.28008 2.20036 4.13862C1.92315 3.85784 1.92565 3.40559 2.20643 3.12838L2.46042 2.87725C2.7412 2.60005 3.19345 2.60219 3.47101 2.88333C3.74822 3.1641 3.74572 3.61635 3.46494 3.89356L3.21095 4.14469C3.07199 4.28222 2.89017 4.35081 2.70869 4.35081Z" fill="#06070E"/>
<path d="M13.433 13.773C13.2765 13.773 13.1187 13.7216 12.9868 13.6162C12.6789 13.3697 12.6289 12.9199 12.8754 12.612C14.6076 10.449 14.744 7.32971 13.2087 5.02667C11.4597 2.40321 7.87029 1.43155 5.0357 2.81473C4.68062 2.98763 4.25373 2.84009 4.08048 2.48608C3.90722 2.13136 4.0544 1.70376 4.40913 1.5305C7.9303 -0.188468 12.2242 0.974303 14.3975 4.23363C16.2747 7.04893 16.1076 10.8612 13.991 13.5047C13.8499 13.6812 13.6423 13.773 13.433 13.773Z" fill="#FFB300"/>
<path d="M7.86138 12.8713C7.86102 12.8713 7.86102 12.8713 7.86138 12.8713C6.80935 12.8713 5.80268 12.4962 5.02715 11.815C3.55323 10.5204 3.14778 8.32417 4.06264 6.5927C4.79602 5.20523 6.29244 4.30859 7.87531 4.30859C8.22182 4.30859 8.56726 4.3511 8.90126 4.43505C10.7792 4.90623 12.1417 6.65485 12.1417 8.59316C12.1417 9.98027 11.4651 11.2881 10.3327 12.0915C9.61321 12.6016 8.75909 12.8713 7.86138 12.8713ZM7.87531 5.7375C6.81578 5.7375 5.81483 6.33514 5.32615 7.26035C4.71636 8.41384 4.98749 9.8781 5.97022 10.7415C6.48463 11.1934 7.15621 11.4424 7.86102 11.4424C8.4608 11.4424 9.02986 11.2638 9.50605 10.9262C10.2619 10.3904 10.7131 9.51838 10.7131 8.59316C10.7131 7.30108 9.80505 6.13509 8.55368 5.82109C8.33292 5.76572 8.10465 5.7375 7.87531 5.7375Z" fill="#FFB300"/>
<path d="M7.85483 20.7386C7.69836 20.7386 7.54047 20.6871 7.40865 20.5817C7.10072 20.3353 7.05071 19.8855 7.2972 19.5776L12.8742 12.6117C13.1211 12.3034 13.5701 12.2541 13.8787 12.5006C14.1867 12.7471 14.2367 13.1968 13.9902 13.5047L8.41317 20.4706C8.27171 20.6468 8.06416 20.7386 7.85483 20.7386Z" fill="#FFB300"/>
<path d="M7.85454 20.7386C7.64521 20.7386 7.43766 20.6468 7.2962 20.4706L1.71918 13.5047C1.4727 13.1968 1.52235 12.7471 1.83064 12.5006C2.13821 12.2541 2.58796 12.3034 2.83516 12.6117L8.41217 19.5776C8.65866 19.8855 8.609 20.3353 8.30072 20.5817C8.16854 20.6871 8.01101 20.7386 7.85454 20.7386Z" fill="#FFB300"/>
</svg>
