<svg width="23" height="16" viewBox="0 0 23 16" fill="none" xmlns="http://www.w3.org/2000/svg">
<path d="M1.14269 2.28576H16.0001C16.3032 2.28576 16.5939 2.16535 16.8083 1.95102C17.0226 1.73669 17.143 1.44599 17.143 1.14288C17.143 0.83977 17.0226 0.549074 16.8083 0.334742C16.5939 0.120411 16.3032 0 16.0001 0H1.14269C0.839581 0 0.548883 0.120411 0.334551 0.334742C0.12022 0.549074 -0.000188828 0.83977 -0.000188828 1.14288C-0.000188828 1.44599 0.12022 1.73669 0.334551 1.95102C0.548883 2.16535 0.839581 2.28576 1.14269 2.28576ZM-0.000188828 8.00016C-0.000188828 7.69705 0.12022 7.40636 0.334551 7.19203C0.548883 6.97769 0.839581 6.85728 1.14269 6.85728H21.7145C22.0177 6.85728 22.3083 6.97769 22.5227 7.19203C22.737 7.40636 22.8574 7.69705 22.8574 8.00016C22.8574 8.30328 22.737 8.59397 22.5227 8.8083C22.3083 9.02263 22.0177 9.14304 21.7145 9.14304H1.14269C0.839581 9.14304 0.548883 9.02263 0.334551 8.8083C0.12022 8.59397 -0.000188828 8.30328 -0.000188828 8.00016ZM-0.000188828 14.8574C-0.000188828 14.5543 0.12022 14.2636 0.334551 14.0493C0.548883 13.835 0.839581 13.7146 1.14269 13.7146H11.4286C11.7317 13.7146 12.0224 13.835 12.2368 14.0493C12.4511 14.2636 12.5715 14.5543 12.5715 14.8574C12.5715 15.1606 12.4511 15.4513 12.2368 15.6656C12.0224 15.8799 11.7317 16.0003 11.4286 16.0003H1.14269C0.839581 16.0003 0.548883 15.8799 0.334551 15.6656C0.12022 15.4513 -0.000188828 15.1606 -0.000188828 14.8574Z" fill="white"/>
</svg>
