<svg width="23" height="17" viewBox="0 0 23 17" fill="none" xmlns="http://www.w3.org/2000/svg">
<path d="M1.14269 3.07385H16.0001C16.3032 3.07385 16.5939 2.95344 16.8083 2.7391C17.0226 2.52477 17.143 2.23408 17.143 1.93097C17.143 1.62786 17.0226 1.33716 16.8083 1.12283C16.5939 0.908496 16.3032 0.788086 16.0001 0.788086H1.14269C0.839581 0.788086 0.548883 0.908496 0.334551 1.12283C0.12022 1.33716 -0.000188828 1.62786 -0.000188828 1.93097C-0.000188828 2.23408 0.12022 2.52477 0.334551 2.7391C0.548883 2.95344 0.839581 3.07385 1.14269 3.07385ZM-0.000188828 8.78825C-0.000188828 8.48514 0.12022 8.19444 0.334551 7.98011C0.548883 7.76578 0.839581 7.64537 1.14269 7.64537H21.7145C22.0177 7.64537 22.3083 7.76578 22.5227 7.98011C22.737 8.19444 22.8574 8.48514 22.8574 8.78825C22.8574 9.09136 22.737 9.38206 22.5227 9.59639C22.3083 9.81072 22.0177 9.93113 21.7145 9.93113H1.14269C0.839581 9.93113 0.548883 9.81072 0.334551 9.59639C0.12022 9.38206 -0.000188828 9.09136 -0.000188828 8.78825ZM-0.000188828 15.6455C-0.000188828 15.3424 0.12022 15.0517 0.334551 14.8374C0.548883 14.6231 0.839581 14.5027 1.14269 14.5027H11.4286C11.7317 14.5027 12.0224 14.6231 12.2368 14.8374C12.4511 15.0517 12.5715 15.3424 12.5715 15.6455C12.5715 15.9486 12.4511 16.2393 12.2368 16.4537C12.0224 16.668 11.7317 16.7884 11.4286 16.7884H1.14269C0.839581 16.7884 0.548883 16.668 0.334551 16.4537C0.12022 16.2393 -0.000188828 15.9486 -0.000188828 15.6455Z" fill="black"/>
</svg>
