<svg width="17" height="21" viewBox="0 0 17 21" fill="none" xmlns="http://www.w3.org/2000/svg">
<path d="M11.9728 2.48047V1.60898C11.9728 1.15465 11.6044 0.786328 11.15 0.786328H2.25449C1.80008 0.786328 1.43164 1.15465 1.43164 1.60898V2.48047H8.24522" stroke="#595959" stroke-miterlimit="10" stroke-linecap="round" stroke-linejoin="round"/>
<path d="M1.43164 19.1802C1.43164 19.6346 1.80004 20.0029 2.25449 20.0029H11.1499C11.6044 20.0029 11.9728 19.6346 11.9728 19.1802V16.7544H1.43164V19.1802Z" stroke="#595959" stroke-miterlimit="10" stroke-linecap="round" stroke-linejoin="round"/>
<path d="M7.3834 18.3788C7.3834 18.7542 7.07894 19.0586 6.7034 19.0586C6.32785 19.0586 6.02344 18.7542 6.02344 18.3788C6.02344 18.0033 6.32785 17.6989 6.7034 17.6989C7.07894 17.6989 7.3834 18.0033 7.3834 18.3788Z" stroke="#595959" stroke-width="0.375" stroke-miterlimit="10" stroke-linecap="round" stroke-linejoin="round"/>
<path d="M15.9356 4.07203H8.13168C7.78062 4.07203 7.49609 4.35652 7.49609 4.7075V11.4145C7.49609 11.7654 7.78062 12.0498 8.13168 12.0498H9.06957V13.1455L11.1971 12.0498H15.9356C16.2866 12.0498 16.5712 11.7654 16.5712 11.4145V4.7075C16.5712 4.35652 16.2866 4.07203 15.9356 4.07203Z" stroke="#595959" stroke-width="0.75" stroke-miterlimit="10" stroke-linecap="round" stroke-linejoin="round"/>
<path d="M4.18062 10.1035C3.79469 9.57879 3.56641 8.93133 3.56641 8.23156C3.56641 7.5318 3.79469 6.88434 4.18062 6.35965" stroke="#595959" stroke-width="0.625" stroke-miterlimit="10" stroke-linecap="round" stroke-linejoin="round"/>
<path d="M5.53519 7.13395C5.3127 7.44336 5.18164 7.82289 5.18164 8.23301C5.18164 8.64316 5.3127 9.0227 5.53519 9.33203" stroke="#595959" stroke-width="0.625" stroke-miterlimit="10" stroke-linecap="round" stroke-linejoin="round"/>
<path d="M14.5915 9.87234L13.9219 8.95437C13.7883 8.77226 13.5259 8.73628 13.3367 8.87433L12.9519 9.15507C12.8906 9.20914 12.8273 9.17527 12.8022 9.15554C12.5713 8.97589 12.2558 8.7305 11.9487 8.30968C11.6409 7.88781 11.503 7.51156 11.4024 7.23695C11.3915 7.20804 11.3853 7.1466 11.4297 7.11078L11.6815 6.92726L11.8343 6.81582C12.0236 6.67742 12.0694 6.4166 11.9361 6.23417L11.2661 5.31617C11.1334 5.13375 10.8706 5.09769 10.6809 5.23605C10.6809 5.23605 10.2835 5.44382 10.0588 6.04625C9.74917 6.87613 10.091 7.7546 11 9.00062C12.2571 10.7223 13.4753 10.7981 13.528 10.8002C14.0842 10.8215 14.3009 10.6264 14.4901 10.4546C14.6635 10.2972 14.7246 10.0553 14.5915 9.87234Z" stroke="#595959" stroke-width="0.625" stroke-miterlimit="10" stroke-linecap="round" stroke-linejoin="round"/>
</svg>
