<svg width="15" height="8" viewBox="0 0 15 8" fill="none" xmlns="http://www.w3.org/2000/svg">
<path d="M10.6217 1.70876H2.91776L3.81614 0.969258C3.9427 0.86139 4.01273 0.716919 4.01115 0.566961C4.00957 0.417003 3.9365 0.273555 3.80767 0.167515C3.67885 0.0614742 3.50459 0.00132472 3.32241 2.16204e-05C3.14024 -0.00128148 2.96473 0.0563661 2.83369 0.160548L0.749299 1.87634C0.621376 1.9846 0.549805 2.12967 0.549805 2.28069C0.549805 2.43172 0.621376 2.57679 0.749299 2.68505L2.83369 4.40084C2.96473 4.50502 3.14024 4.56267 3.32241 4.56137C3.50459 4.56006 3.67885 4.49991 3.80767 4.39387C3.9365 4.28783 4.00957 4.14439 4.01115 3.99443C4.01273 3.84447 3.9427 3.7 3.81614 3.59213L2.91776 2.85262H10.6217C11.2666 2.85262 11.8852 3.06352 12.3412 3.43893C12.7973 3.81433 13.0535 4.32348 13.0535 4.85438C13.0535 5.38528 12.7973 5.89444 12.3412 6.26984C11.8852 6.64524 11.2666 6.85614 10.6217 6.85614H6.1055C5.92123 6.85614 5.7445 6.9164 5.6142 7.02365C5.4839 7.13091 5.4107 7.27638 5.4107 7.42807C5.4107 7.57976 5.4839 7.72523 5.6142 7.83249C5.7445 7.93974 5.92123 8 6.1055 8H10.6217C11.6352 8 12.6072 7.66859 13.3238 7.07867C14.0405 6.48875 14.4431 5.68865 14.4431 4.85438C14.4431 4.02011 14.0405 3.22001 13.3238 2.63009C12.6072 2.04018 11.6352 1.70876 10.6217 1.70876Z" fill="#121328"/>
</svg>
