<svg width="22" height="22" viewBox="0 0 22 22" fill="none" xmlns="http://www.w3.org/2000/svg">
<path d="M21 21L15.9507 16.1704M18.4425 9.84938C18.4425 11.0115 18.2169 12.1622 17.7786 13.2359C17.3404 14.3096 16.698 15.2851 15.8881 16.1068C15.0783 16.9286 14.1168 17.5804 13.0587 18.0251C12.0006 18.4699 10.8665 18.6988 9.72126 18.6988C8.57596 18.6988 7.44189 18.4699 6.38378 18.0251C5.32566 17.5804 4.36424 16.9286 3.5544 16.1068C2.74455 15.2851 2.10215 14.3096 1.66387 13.2359C1.22558 12.1622 1 11.0115 1 9.84938C1 7.50238 1.91884 5.25151 3.5544 3.59192C5.18995 1.93234 7.40824 1 9.72126 1C12.0343 1 14.2526 1.93234 15.8881 3.59192C17.5237 5.25151 18.4425 7.50238 18.4425 9.84938Z" stroke="white" stroke-width="2" stroke-linecap="round" stroke-linejoin="round"/>
</svg>
