<svg width="15" height="21" viewBox="0 0 15 21" fill="none" xmlns="http://www.w3.org/2000/svg">
<path d="M7.75102 10.0924V6.76223C7.75102 6.42867 7.48055 6.1582 7.147 6.1582C6.81344 6.1582 6.54297 6.42867 6.54297 6.76223V10.3884C6.54297 10.575 6.62955 10.7515 6.7772 10.8663L8.8329 12.4562C8.94297 12.5414 9.07317 12.5824 9.20203 12.5824C9.38257 12.5824 9.56109 12.5018 9.67988 12.3475C9.88391 12.083 9.83559 11.7038 9.57183 11.4998L7.75102 10.0924Z" fill="#595959"/>
<path d="M11.3671 3.28819L11.1221 2.00362C10.9443 1.07006 10.1262 0.393555 9.17651 0.393555H5.11812C4.16846 0.393555 3.35101 1.07074 3.17315 2.00295L2.92819 3.28819C1.28188 3.49758 0 4.89221 0 6.5949V14.1922C0 15.8942 1.28188 17.2895 2.92819 17.4989L3.17315 18.7835C3.35101 19.717 4.16913 20.3936 5.11879 20.3936H9.17651C10.1262 20.3936 10.9443 19.7164 11.1221 18.7842L11.3671 17.4989C13.0134 17.2895 14.2953 15.8949 14.2953 14.1922V6.5949C14.2953 4.89221 13.0134 3.49758 11.3671 3.28819ZM5.11812 1.60161H9.17651C9.54698 1.60161 9.86577 1.86537 9.9349 2.2298L10.1282 3.2459H4.16577L4.35973 2.22845C4.42953 1.86537 4.74832 1.60161 5.11812 1.60161ZM9.17651 19.1855H5.11879C4.74832 19.1855 4.42953 18.9217 4.3604 18.5573L4.16711 17.5412H10.1295L9.93557 18.558C9.86577 18.9217 9.54698 19.1855 9.17651 19.1855ZM13.0872 14.1922C13.0872 15.3727 12.1268 16.3325 10.9463 16.3325H3.34899C2.16846 16.3325 1.20805 15.3721 1.20805 14.1922V6.5949C1.20805 5.41436 2.16846 4.45463 3.34899 4.45463H10.9463C12.1268 4.45463 13.0872 5.41503 13.0872 6.5949V14.1922Z" fill="#595959"/>
</svg>
