<svg width="21" height="17" viewBox="0 0 21 17" fill="none" xmlns="http://www.w3.org/2000/svg">
<path d="M18.4263 0.393555H2.42342C1.08478 0.395676 0.000707155 1.48045 0 2.81909V11.8296C0.000707155 13.1683 1.08478 14.2531 2.42342 14.2545H8.29775L6.18195 15.3767C5.5547 15.6681 5.99101 16.6277 6.62462 16.3406C6.66069 16.313 10.381 14.3542 10.4249 14.3252L14.1678 16.3144C14.2442 16.3554 14.3291 16.3766 14.4161 16.3766C14.957 16.3986 15.155 15.6136 14.6678 15.3767L12.552 14.2545H18.4263C19.7643 14.2531 20.8483 13.1683 20.8497 11.8303V2.81909C20.849 1.48045 19.765 0.395676 18.4263 0.393555ZM19.789 11.8289C19.789 12.582 19.1794 13.1923 18.4263 13.193H2.42342C1.67101 13.1923 1.06144 12.582 1.06073 11.8296V2.81909C1.06073 2.06597 1.6703 1.4557 2.42342 1.45499H18.4263C19.1787 1.4557 19.7883 2.06597 19.789 2.81838V11.8289Z" fill="#595959"/>
<path d="M9.48976 4.875H5.49716C5.2044 4.875 4.9668 5.1126 4.9668 5.40536C4.9668 5.69813 5.2044 5.93573 5.49716 5.93573H6.96309V9.24238C6.96309 9.53514 7.2007 9.77274 7.49346 9.77274C7.78622 9.77274 8.02383 9.53514 8.02383 9.24238V5.93573H9.48976C10.1835 5.9329 10.1835 4.87854 9.48976 4.875Z" fill="#595959"/>
<path d="M15.584 4.92893C15.3209 4.80023 15.0034 4.90984 14.8747 5.1729L13.4802 8.03122L12.0864 5.17149C11.7788 4.54919 10.8283 5.01167 11.131 5.63821L13.0035 9.47522C13.186 9.86062 13.7736 9.86345 13.9568 9.47522L15.8279 5.63821C15.9566 5.37515 15.847 5.05764 15.584 4.92893Z" fill="#595959"/>
</svg>
