<svg width="16" height="16" viewBox="0 0 16 16" fill="none" xmlns="http://www.w3.org/2000/svg">
<path d="M6.057 6.63415C6.71318 6.63415 7.35463 6.4396 7.90023 6.07512C8.44583 5.71063 8.87107 5.19258 9.12218 4.58646C9.37329 3.98035 9.43899 3.31339 9.31098 2.66995C9.18296 2.0265 8.86698 1.43545 8.40298 0.97155C7.93899 0.507649 7.34783 0.191728 6.70425 0.0637381C6.06068 -0.0642519 5.39359 0.00143723 4.78736 0.252499C4.18112 0.50356 3.66297 0.928717 3.29841 1.47421C2.93385 2.0197 2.73927 2.66102 2.73927 3.31707C2.7403 4.1965 3.09018 5.03961 3.71215 5.66146C4.33412 6.28331 5.1774 6.63311 6.057 6.63415ZM6.057 1.17073C6.48159 1.17073 6.89664 1.29661 7.24968 1.53246C7.60271 1.7683 7.87787 2.10351 8.04035 2.4957C8.20283 2.8879 8.24535 3.31946 8.16251 3.7358C8.07968 4.15215 7.87522 4.5346 7.57499 4.83477C7.27476 5.13494 6.89224 5.33936 6.47581 5.42217C6.05938 5.50499 5.62774 5.46249 5.23547 5.30003C4.8432 5.13758 4.50792 4.86248 4.27203 4.50952C4.03614 4.15655 3.91023 3.74158 3.91023 3.31707C3.91085 2.74802 4.13723 2.20245 4.53969 1.80007C4.94215 1.39768 5.48783 1.17135 6.057 1.17073ZM1.17096 12.3083C1.17096 13.5282 1.69633 14.0488 2.92741 14.0488H6.04997C6.20525 14.0488 6.35417 14.1105 6.46397 14.2202C6.57377 14.33 6.63545 14.4789 6.63545 14.6341C6.63545 14.7894 6.57377 14.9383 6.46397 15.0481C6.35417 15.1578 6.20525 15.2195 6.04997 15.2195H2.92741C1.03981 15.2195 0 14.1854 0 12.3083C0 10.2306 1.17565 7.80488 4.48869 7.80488H7.61126C8.2128 7.79438 8.81137 7.89165 9.37863 8.0921C9.51319 8.15401 9.61927 8.26461 9.67551 8.40162C9.73174 8.53863 9.73395 8.69185 9.68168 8.83042C9.62941 8.96899 9.52655 9.08259 9.39383 9.14835C9.2611 9.21411 9.10839 9.22713 8.96645 9.18478C8.53078 9.03492 8.07184 8.96408 7.61126 8.97561H4.48869C4.04289 8.94126 3.59495 9.00404 3.17577 9.1596C2.7566 9.31516 2.37618 9.5598 2.06076 9.87664C1.74534 10.1935 1.50244 10.575 1.34882 10.9948C1.1952 11.4146 1.13452 11.8628 1.17096 12.3083ZM15.6027 9.07395L14.733 8.20527C14.6067 8.07786 14.4562 7.97685 14.2904 7.90811C14.1247 7.83937 13.9469 7.80428 13.7674 7.80488C13.5877 7.80451 13.4097 7.83986 13.2438 7.90886C13.0779 7.97787 12.9274 8.07915 12.801 8.20683L7.97894 13.0505C7.92462 13.1047 7.88154 13.169 7.8522 13.2399C7.82286 13.3108 7.80783 13.3867 7.80798 13.4634V15.4146C7.80798 15.5699 7.86966 15.7188 7.97946 15.8286C8.08926 15.9383 8.23818 16 8.39346 16H10.3451C10.4997 15.9998 10.6481 15.9387 10.758 15.8299L15.598 11.008C15.7254 10.8812 15.8265 10.7305 15.8955 10.5646C15.9645 10.3986 16 10.2207 16 10.041C16 9.86126 15.9645 9.68332 15.8955 9.51736C15.8265 9.35141 15.7254 9.20072 15.598 9.07395H15.6027ZM10.1015 14.8293H8.97738V13.7054L12.1952 10.4734L13.3341 11.6121L10.1015 14.8293ZM14.7744 10.1783L14.164 10.7863L13.0219 9.64371L13.63 9.03259C13.648 9.01447 13.6694 9.0001 13.693 8.99032C13.7166 8.98054 13.7419 8.97554 13.7674 8.97561C13.8192 8.97569 13.8688 8.99616 13.9056 9.03259L14.7752 9.90205C14.7934 9.91995 14.8079 9.94134 14.8177 9.96494C14.8275 9.98854 14.8324 10.0139 14.8322 10.0394C14.8322 10.0652 14.8272 10.0908 14.8172 10.1147C14.8073 10.1385 14.7928 10.1602 14.7744 10.1783Z" fill="#595959"/>
</svg>
