<svg width="222" height="56" viewBox="0 0 222 56" fill="none" xmlns="http://www.w3.org/2000/svg">
<rect width="39.6854" height="39.6855" rx="3.11116" transform="matrix(0.658668 0.752433 -0.752438 0.658663 29.8613 0)" fill="#FFB300"/>
<path d="M15.3369 29.3611C14.312 28.4002 13.295 27.4486 12.2891 26.506C12.6883 26.1104 13.051 25.7438 13.4233 25.3848C16.1163 22.7879 18.8124 20.1925 21.5054 17.5941C21.8634 17.2489 21.8618 17.2428 22.2072 17.5773C24.219 19.5189 26.2308 21.462 28.2395 23.4066C28.3535 23.5166 28.4359 23.5654 28.5816 23.4234C29.6493 22.38 30.7297 21.3459 31.8021 20.3071C32.8476 19.2959 33.8916 18.2815 34.9371 17.2688C34.9466 17.2581 34.9624 17.2535 34.9688 17.252C38.156 20.3224 41.3416 23.3913 44.5336 26.4663C42.4362 28.4797 40.3436 30.49 38.2637 32.4865C37.299 31.5455 36.3121 30.5831 35.3236 29.6192C35.2998 29.6315 35.2745 29.6437 35.2507 29.6559C35.3078 29.5902 35.3616 29.5184 35.425 29.4573C36.4198 28.5117 37.4146 27.5677 38.4126 26.6252C38.5314 26.5121 38.4886 26.4434 38.3904 26.3502C37.3497 25.3542 36.3121 24.3567 35.2777 23.3546C34.9767 23.0629 34.9893 23.0613 34.6884 23.3531C33.2246 24.7676 31.7578 26.1776 30.2925 27.5891C28.6244 29.1961 26.9547 30.8031 25.2867 32.4117C25.152 32.5415 24.9318 32.6683 24.9207 32.8088C24.9112 32.9249 25.1552 33.0578 25.2851 33.1846C26.2229 34.0889 27.1623 34.9933 28.0985 35.8991C28.2062 36.003 28.306 36.116 28.428 36.2444C28.5436 36.116 28.6387 36.0015 28.7448 35.8976C29.6857 34.9856 30.6299 34.0752 31.5693 33.1617C31.65 33.0823 31.7071 33.0563 31.7974 33.1434C32.7383 34.0553 33.6809 34.9658 34.6218 35.8777C34.6535 35.9083 34.6757 35.948 34.7042 35.9862C32.6132 38.0057 30.5285 40.0205 28.4216 42.0553C28.0985 41.7421 27.7959 41.4458 27.4902 41.1509C25.7508 39.4737 24.0115 37.7964 22.2721 36.1206C21.1854 35.0742 20.1003 34.0248 19.0089 32.983C18.8679 32.8485 18.8568 32.7767 19.0089 32.6301C21.0017 30.7206 22.9866 28.8035 24.973 26.8879C25.0285 26.8345 25.0792 26.7764 25.1394 26.7321C25.4974 26.4678 25.3548 26.4403 25.1346 26.228C24.097 25.229 23.0594 24.2299 22.0266 23.2263C21.8935 23.0965 21.8175 23.0965 21.6749 23.2416C21.111 23.819 20.528 24.3781 19.9466 24.9387C18.5051 26.3304 17.0588 27.7205 15.6157 29.109C15.5175 29.2037 15.4145 29.2923 15.3369 29.3626V29.3611Z" fill="white"/>
<path d="M74.9555 37.9163C68.1205 37.9163 62.2917 32.261 62.2917 25.5648C62.2917 18.8685 68.1205 13.2479 74.9555 13.2479C78.5638 13.2479 81.8946 14.7745 84.2192 17.2379L80.5068 20.5686C79.1189 18.9726 77.1413 17.8971 74.9555 17.8971C70.9655 17.8971 67.5654 21.436 67.5654 25.5648C67.5654 29.7282 70.9655 33.2672 74.9555 33.2672C77.1413 33.2672 79.1189 32.1916 80.5068 30.5956L84.2192 33.9264C81.8946 36.3551 78.5638 37.9163 74.9555 37.9163ZM95.7134 37.9163C90.3703 37.9163 85.8946 33.6141 85.8946 28.5139C85.8946 23.4136 90.3703 19.1461 95.7134 19.1461C101.022 19.1461 105.463 23.4136 105.463 28.5139C105.463 33.6141 101.022 37.9163 95.7134 37.9163ZM95.7134 33.6488C98.3849 33.6488 100.64 31.2895 100.64 28.5139C100.64 25.7382 98.3849 23.4136 95.7134 23.4136C93.0071 23.4136 90.7519 25.7382 90.7519 28.5139C90.7519 31.2895 93.0071 33.6488 95.7134 33.6488ZM115.274 37.9163C112.395 37.9163 109.341 36.9449 107.19 35.2101L109.376 31.7059C110.972 32.8508 112.984 33.7182 115.378 33.7182C116.732 33.7182 117.703 33.1631 117.703 32.3651C117.703 31.2548 116.385 30.9079 114.546 30.4221C110.868 29.52 108.023 28.5139 107.988 24.9749C107.954 21.5748 110.764 19.1461 114.997 19.1461C117.564 19.1461 120.097 20.0482 122.075 21.3666L120.028 24.9749C118.397 23.9688 116.523 23.379 114.997 23.379C113.748 23.379 112.88 23.83 112.88 24.4545C112.88 25.426 113.609 25.7035 116.038 26.3628C119.125 27.1608 122.56 28.2016 122.56 32.1222C122.56 35.6611 119.681 37.9163 115.274 37.9163ZM129.706 43.7452C128.214 43.7452 126.41 43.2941 125.196 42.6349L126.271 39.1654C127.139 39.6511 128.041 39.9634 128.63 39.9634C129.602 39.9634 130.365 39.6511 130.747 38.9919L131.371 37.6735L123.912 19.5625H129.151L133.869 32.1569L138.345 19.5625H143.515L136.159 38.4021C134.806 41.9063 132.516 43.7452 129.706 43.7452Z" fill="white"/>
<path d="M146.45 37.5V13.6642H151.55L158.94 27.1261L166.295 13.6642H171.43V37.5H166.295V22.6503L158.94 36.1122L151.55 22.6503V37.5H146.45ZM183.858 19.1461C188.542 19.1461 191.734 22.0952 191.734 26.7791V37.5H186.842V35.6958C185.558 37.153 183.511 37.9163 181.568 37.9163C177.751 37.9163 174.802 35.6264 174.802 32.1916C174.802 28.6527 178.098 26.224 182.262 26.224C183.719 26.224 185.315 26.5362 186.842 27.1261V26.7791C186.842 24.8709 185.662 23.2055 182.713 23.2055C181.047 23.2055 179.486 23.7606 178.064 24.4892L176.363 21.1238C178.896 19.84 181.36 19.1461 183.858 19.1461ZM182.713 34.4121C184.656 34.4121 186.495 33.51 186.842 31.8446V30.1793C185.697 29.7629 184.378 29.52 182.99 29.52C181.151 29.52 179.694 30.5956 179.694 32.0528C179.694 33.51 180.978 34.4121 182.713 34.4121ZM200.722 22.8932C201.901 20.5686 204.122 19.1461 206.863 19.1461V23.4136C203.116 23.4136 200.722 25.5648 200.722 28.9302V37.5H195.656V19.5625H200.722V22.8932ZM218.875 33.059L220.09 36.3551C219.049 37.2918 217.418 37.9163 215.961 37.9163C212.803 37.9163 210.583 35.6611 210.583 32.4345V23.6565H208.12V19.5625H210.583V14.6357H215.44V19.5625H219.326V23.6565H215.44V31.6365C215.44 32.8161 216.204 33.6488 217.14 33.6488C217.834 33.6488 218.528 33.4059 218.875 33.059Z" fill="#FFB300"/>
</svg>
