<svg width="222" height="56" viewBox="0 0 222 56" fill="none" xmlns="http://www.w3.org/2000/svg">
<rect x="29.8613" width="39.6853" height="39.6853" rx="3.11115" transform="rotate(48.8018 29.8613 0)" fill="#E93538"/>
<path d="M15.3388 29.3601C14.3139 28.3993 13.2969 27.4476 12.291 26.5051C12.6902 26.1094 13.053 25.7428 13.4252 25.3838C16.1182 22.7869 18.8143 20.1916 21.5073 17.5932C21.8653 17.2479 21.8637 17.2418 22.209 17.5764C24.2208 19.5179 26.2326 21.461 28.2413 23.4056C28.3553 23.5156 28.4377 23.5645 28.5834 23.4224C29.6511 22.3791 30.7315 21.3449 31.8039 20.3061C32.8494 19.2949 33.8933 18.2806 34.9388 17.2678C34.9483 17.2571 34.9642 17.2525 34.9705 17.251C38.1577 20.3214 41.3433 23.3903 44.5353 26.4653C42.438 28.4787 40.3454 30.489 38.2654 32.4855C37.3007 31.5445 36.3138 30.5822 35.3254 29.6183C35.3016 29.6305 35.2763 29.6427 35.2525 29.6549C35.3095 29.5892 35.3634 29.5174 35.4267 29.4563C36.4216 28.5108 37.4164 27.5667 38.4144 26.6242C38.5332 26.5112 38.4904 26.4424 38.3922 26.3492C37.3514 25.3533 36.3138 24.3558 35.2794 23.3537C34.9784 23.0619 34.9911 23.0604 34.6901 23.3521C33.2264 24.7667 31.7596 26.1766 30.2943 27.5881C28.6262 29.1951 26.9566 30.8021 25.2885 32.4107C25.1539 32.5405 24.9337 32.6673 24.9226 32.8079C24.9131 32.9239 25.157 33.0568 25.2869 33.1836C26.2247 34.088 27.1641 34.9923 28.1003 35.8981C28.208 36.002 28.3078 36.1151 28.4298 36.2434C28.5454 36.1151 28.6405 36.0005 28.7466 35.8966C29.6876 34.9847 30.6317 34.0742 31.5711 33.1607C31.6518 33.0813 31.7089 33.0553 31.7992 33.1424C32.7401 34.0544 33.6827 34.9648 34.6236 35.8768C34.6553 35.9073 34.6775 35.947 34.706 35.9852C32.615 38.0047 30.5303 40.0196 28.4235 42.0543C28.1003 41.7411 27.7977 41.4448 27.492 41.15C25.7527 39.4727 24.0133 37.7954 22.274 36.1196C21.1873 35.0733 20.1022 34.0238 19.0108 32.982C18.8698 32.8476 18.8587 32.7758 19.0108 32.6291C21.0035 30.7196 22.9884 28.8025 24.9749 26.887C25.0303 26.8335 25.081 26.7754 25.1412 26.7311C25.4992 26.4669 25.3566 26.4394 25.1365 26.227C24.0989 25.228 23.0613 24.229 22.0285 23.2253C21.8954 23.0955 21.8194 23.0955 21.6768 23.2406C21.1128 23.818 20.5299 24.3771 19.9485 24.9378C18.507 26.3294 17.0607 27.7195 15.6176 29.1081C15.5194 29.2028 15.4164 29.2914 15.3388 29.3616V29.3601Z" fill="white"/>
<path d="M74.9554 37.9163C68.1205 37.9163 62.2916 32.261 62.2916 25.5648C62.2916 18.8686 68.1205 13.248 74.9554 13.248C78.5637 13.248 81.8945 14.7746 84.2191 17.2379L80.5067 20.5687C79.1189 18.9727 77.1412 17.8972 74.9554 17.8972C70.9655 17.8972 67.5653 21.4361 67.5653 25.5648C67.5653 29.7283 70.9655 33.2672 74.9554 33.2672C77.1412 33.2672 79.1189 32.1916 80.5067 30.5956L84.2191 33.9264C81.8945 36.3551 78.5637 37.9163 74.9554 37.9163ZM95.7133 37.9163C90.3702 37.9163 85.8945 33.6141 85.8945 28.5139C85.8945 23.4137 90.3702 19.1462 95.7133 19.1462C101.022 19.1462 105.463 23.4137 105.463 28.5139C105.463 33.6141 101.022 37.9163 95.7133 37.9163ZM95.7133 33.6488C98.3848 33.6488 100.64 31.2895 100.64 28.5139C100.64 25.7383 98.3848 23.4137 95.7133 23.4137C93.007 23.4137 90.7518 25.7383 90.7518 28.5139C90.7518 31.2895 93.007 33.6488 95.7133 33.6488ZM115.274 37.9163C112.394 37.9163 109.341 36.9449 107.19 35.2101L109.376 31.7059C110.972 32.8508 112.984 33.7182 115.378 33.7182C116.731 33.7182 117.703 33.1631 117.703 32.3651C117.703 31.2548 116.384 30.9079 114.545 30.4222C110.868 29.5201 108.023 28.5139 107.988 24.975C107.953 21.5749 110.764 19.1462 114.997 19.1462C117.564 19.1462 120.097 20.0483 122.074 21.3667L120.027 24.975C118.397 23.9688 116.523 23.379 114.997 23.379C113.747 23.379 112.88 23.8301 112.88 24.4546C112.88 25.426 113.609 25.7036 116.037 26.3628C119.125 27.1608 122.56 28.2017 122.56 32.1222C122.56 35.6611 119.68 37.9163 115.274 37.9163ZM129.706 43.7452C128.214 43.7452 126.41 43.2941 125.195 42.6349L126.271 39.1654C127.138 39.6511 128.04 39.9634 128.63 39.9634C129.602 39.9634 130.365 39.6511 130.747 38.9919L131.371 37.6735L123.912 19.5625H129.151L133.869 32.1569L138.345 19.5625H143.514L136.159 38.4021C134.806 41.9063 132.516 43.7452 129.706 43.7452Z" fill="#121328"/>
<path d="M146.449 37.5V13.6643H151.549L158.939 27.1261L166.295 13.6643H171.43V37.5H166.295V22.6504L158.939 36.1122L151.549 22.6504V37.5H146.449ZM183.857 19.1462C188.541 19.1462 191.733 22.0953 191.733 26.7792V37.5H186.841V35.6958C185.557 37.153 183.51 37.9163 181.567 37.9163C177.751 37.9163 174.802 35.6265 174.802 32.1916C174.802 28.6527 178.098 26.224 182.261 26.224C183.718 26.224 185.314 26.5363 186.841 27.1261V26.7792C186.841 24.8709 185.661 23.2055 182.712 23.2055C181.047 23.2055 179.486 23.7607 178.063 24.4893L176.363 21.1238C178.896 19.8401 181.359 19.1462 183.857 19.1462ZM182.712 34.4121C184.655 34.4121 186.494 33.51 186.841 31.8447V30.1793C185.696 29.7629 184.378 29.5201 182.99 29.5201C181.151 29.5201 179.694 30.5956 179.694 32.0528C179.694 33.51 180.977 34.4121 182.712 34.4121ZM200.721 22.8933C201.901 20.5687 204.121 19.1462 206.862 19.1462V23.4137C203.115 23.4137 200.721 25.5648 200.721 28.9303V37.5H195.656V19.5625H200.721V22.8933ZM218.875 33.059L220.089 36.3551C219.048 37.2918 217.417 37.9163 215.96 37.9163C212.803 37.9163 210.582 35.6611 210.582 32.4345V23.6566H208.119V19.5625H210.582V14.6358H215.44V19.5625H219.326V23.6566H215.44V31.6365C215.44 32.8161 216.203 33.6488 217.14 33.6488C217.834 33.6488 218.528 33.406 218.875 33.059Z" fill="#E93538"/>
</svg>
