<svg width="222" height="56" viewBox="0 0 222 56" fill="none" xmlns="http://www.w3.org/2000/svg">
<rect width="39.6854" height="39.6855" rx="3.11116" transform="matrix(0.658668 0.752433 -0.752438 0.658663 29.8613 0)" fill="#E93538"/>
<path d="M15.3369 29.3621C14.312 28.4012 13.295 27.4495 12.2891 26.507C12.6883 26.1114 13.051 25.7447 13.4233 25.3858C16.1163 22.7889 18.8124 20.1935 21.5054 17.5951C21.8634 17.2499 21.8618 17.2438 22.2072 17.5783C24.219 19.5199 26.2308 21.4629 28.2395 23.4075C28.3535 23.5175 28.4359 23.5664 28.5816 23.4244C29.6493 22.381 30.7297 21.3468 31.8021 20.3081C32.8476 19.2968 33.8916 18.2825 34.9371 17.2697C34.9466 17.259 34.9624 17.2545 34.9688 17.2529C38.156 20.3234 41.3416 23.3923 44.5336 26.4673C42.4362 28.4806 40.3436 30.4909 38.2637 32.4875C37.299 31.5465 36.3121 30.5841 35.3236 29.6202C35.2998 29.6324 35.2745 29.6447 35.2507 29.6569C35.3078 29.5912 35.3616 29.5194 35.425 29.4583C36.4198 28.5127 37.4146 27.5687 38.4126 26.6262C38.5314 26.5131 38.4886 26.4444 38.3904 26.3512C37.3497 25.3552 36.3121 24.3577 35.2777 23.3556C34.9767 23.0638 34.9893 23.0623 34.6884 23.3541C33.2246 24.7686 31.7578 26.1786 30.2925 27.5901C28.6244 29.1971 26.9547 30.8041 25.2867 32.4126C25.152 32.5425 24.9318 32.6693 24.9207 32.8098C24.9112 32.9259 25.1552 33.0588 25.2851 33.1856C26.2229 34.0899 27.1623 34.9942 28.0985 35.9001C28.2062 36.004 28.306 36.117 28.428 36.2453C28.5436 36.117 28.6387 36.0024 28.7448 35.8986C29.6857 34.9866 30.6299 34.0762 31.5693 33.1627C31.65 33.0832 31.7071 33.0573 31.7974 33.1443C32.7383 34.0563 33.6809 34.9667 34.6218 35.8787C34.6535 35.9093 34.6757 35.949 34.7042 35.9872C32.6132 38.0066 30.5285 40.0215 28.4216 42.0562C28.0985 41.7431 27.7959 41.4467 27.4902 41.1519C25.7508 39.4746 24.0115 37.7974 22.2721 36.1216C21.1854 35.0752 20.1003 34.0258 19.0089 32.9839C18.8679 32.8495 18.8568 32.7777 19.0089 32.6311C21.0017 30.7216 22.9866 28.8045 24.973 26.8889C25.0285 26.8354 25.0792 26.7774 25.1394 26.7331C25.4974 26.4688 25.3548 26.4413 25.1346 26.229C24.097 25.23 23.0594 24.2309 22.0266 23.2273C21.8935 23.0975 21.8175 23.0975 21.6749 23.2426C21.111 23.82 20.528 24.3791 19.9466 24.9397C18.5051 26.3313 17.0588 27.7214 15.6157 29.11C15.5175 29.2047 15.4145 29.2933 15.3369 29.3636V29.3621Z" fill="white"/>
<path d="M62.0835 27.426C62.0835 25.1592 62.6386 23.0659 63.7489 21.1461C64.8822 19.2263 66.4088 17.7113 68.3287 16.601C70.2485 15.4676 72.3418 14.9009 74.6085 14.9009C76.9216 14.9009 79.0611 15.5023 81.0272 16.7051C82.9933 17.9079 84.5199 19.4923 85.607 21.4584L81.0272 23.9217C80.3795 22.7652 79.489 21.8516 78.3556 21.1808C77.2223 20.4869 75.9732 20.1399 74.6085 20.1399C73.2901 20.1399 72.0642 20.4638 70.9308 21.1114C69.8206 21.7591 68.9416 22.6496 68.294 23.783C67.6463 24.8932 67.3225 26.1076 67.3225 27.426C67.3225 28.7444 67.6463 29.9703 68.294 31.1037C68.9647 32.214 69.8553 33.1045 70.9655 33.7753C72.0758 34.4229 73.2901 34.7467 74.6085 34.7467C75.9732 34.7467 77.2338 34.3998 78.3903 33.7059C79.5469 32.9888 80.4374 32.0405 81.0619 30.8608L85.6764 33.3589C84.5893 35.3481 83.0511 36.9557 81.0619 38.1816C79.0958 39.3843 76.9447 39.9857 74.6085 39.9857C72.3418 39.9857 70.2485 39.419 68.3287 38.2857C66.4088 37.1523 64.8822 35.6257 63.7489 33.7059C62.6386 31.786 62.0835 29.6928 62.0835 27.426ZM95.6632 40.0204C93.9979 40.0204 92.4597 39.6157 91.0488 38.8061C89.6609 37.9734 88.5507 36.8516 87.718 35.4406C86.9084 34.0297 86.5037 32.5031 86.5037 30.8608C86.5037 29.1955 86.9084 27.6689 87.718 26.281C88.5507 24.8701 89.6609 23.7598 91.0488 22.9503C92.4597 22.1176 93.9979 21.7012 95.6632 21.7012C97.3055 21.7012 98.8205 22.1176 100.208 22.9503C101.619 23.7598 102.73 24.8701 103.539 26.281C104.372 27.6689 104.788 29.1955 104.788 30.8608C104.788 32.5031 104.372 34.0297 103.539 35.4406C102.73 36.8516 101.619 37.9734 100.208 38.8061C98.8205 39.6157 97.3055 40.0204 95.6632 40.0204ZM95.6286 35.059C96.7851 35.059 97.7797 34.6542 98.6124 33.8446C99.4451 33.012 99.8614 32.0173 99.8614 30.8608C99.8614 29.7043 99.4451 28.7097 98.6124 27.877C97.7797 27.0443 96.7851 26.628 95.6286 26.628C94.472 26.628 93.4774 27.0443 92.6447 27.877C91.8352 28.7097 91.4304 29.7043 91.4304 30.8608C91.4304 32.0173 91.8352 33.012 92.6447 33.8446C93.4774 34.6542 94.472 35.059 95.6286 35.059ZM111.491 27.079C111.491 27.4722 111.734 27.7729 112.22 27.9811C112.705 28.1662 113.48 28.3628 114.544 28.5709C115.909 28.8485 117.042 29.1608 117.945 29.5077C118.847 29.8315 119.633 30.3867 120.304 31.1731C120.998 31.9364 121.345 33.0004 121.345 34.3651C121.345 35.5447 120.986 36.5625 120.269 37.4183C119.552 38.251 118.604 38.887 117.424 39.3265C116.244 39.7429 114.972 39.951 113.608 39.951C111.734 39.951 110.138 39.6157 108.82 38.9449C107.501 38.251 106.507 37.2332 105.836 35.8917L109.895 33.8099C110.45 35.2903 111.688 36.0305 113.608 36.0305C114.394 36.0305 115.076 35.8917 115.655 35.6141C116.256 35.3134 116.557 34.8971 116.557 34.3651C116.557 33.9025 116.279 33.5555 115.724 33.3242C115.192 33.0929 114.336 32.85 113.157 32.5956C111.815 32.2949 110.693 31.9827 109.791 31.6588C108.889 31.3119 108.114 30.7914 107.466 30.0975C106.819 29.3805 106.495 28.4322 106.495 27.2525C106.495 26.1191 106.819 25.1361 107.466 24.3034C108.114 23.4476 108.982 22.7999 110.069 22.3605C111.179 21.921 112.382 21.7012 113.677 21.7012C115.204 21.7012 116.58 22.0135 117.806 22.638C119.032 23.2625 119.992 24.1646 120.685 25.3443L116.661 27.3219C116.383 26.7436 116.002 26.3157 115.516 26.0382C115.053 25.7606 114.44 25.6218 113.677 25.6218C113.006 25.6218 112.474 25.7606 112.081 26.0382C111.688 26.2926 111.491 26.6396 111.491 27.079ZM135.498 22.1523H140.668L134.839 39.2571C133.867 41.7552 132.549 43.6172 130.883 44.8431C129.241 46.069 127.275 46.601 124.985 46.4391V41.6511C125.124 41.6742 125.332 41.6858 125.61 41.6858C126.581 41.6858 127.391 41.4314 128.038 40.9225C128.686 40.4136 129.23 39.7082 129.669 38.8061L122.175 22.1523H127.518L132.063 32.1099L135.498 22.1523Z" fill="white"/>
<path d="M161.694 15.2479V15.2132H166.898V39.5H161.694V24.7891L155.518 35.1284H154.234L148.024 24.7544V39.5H142.819V15.2132H148.024V15.2479L148.093 15.2132L154.859 26.5933L161.624 15.2132L161.694 15.2479ZM183.3 22.1523H188.227V39.5H183.3V38.1816C182.537 38.7598 181.693 39.1993 180.768 39.5C179.866 39.8238 178.952 39.9857 178.027 39.9857C176.223 39.9857 174.661 39.5925 173.343 38.8061C172.048 38.0197 171.053 36.9441 170.359 35.5794C169.665 34.1916 169.318 32.6187 169.318 30.8608C169.318 29.1029 169.665 27.5301 170.359 26.1423C171.053 24.7313 172.048 23.6326 173.343 22.8462C174.661 22.0598 176.223 21.6665 178.027 21.6665C178.975 21.6665 179.9 21.8285 180.802 22.1523C181.704 22.4761 182.537 22.9271 183.3 23.5054V22.1523ZM178.686 35.2672C179.981 35.2672 181.068 34.8508 181.947 34.0181C182.826 33.1854 183.266 32.1099 183.266 30.7914C183.266 29.5193 182.826 28.4784 181.947 27.6689C181.068 26.8593 179.981 26.4545 178.686 26.4545C177.391 26.4545 176.327 26.8593 175.494 27.6689C174.661 28.4784 174.245 29.5424 174.245 30.8608C174.245 32.1793 174.661 33.2433 175.494 34.0528C176.327 34.8624 177.391 35.2672 178.686 35.2672ZM203.024 21.8053L202.677 26.4892C202.515 26.4198 202.249 26.3851 201.879 26.3851C200.468 26.3851 199.312 26.7899 198.41 27.5995C197.531 28.3859 197.091 29.4268 197.091 30.7221V39.5H192.13V22.1523H197.091V24.9626C197.508 24.0605 198.178 23.3088 199.104 22.7074C200.029 22.106 201.151 21.8053 202.469 21.8053H203.024ZM212.806 33.3242C212.806 33.9719 212.979 34.4229 213.326 34.6773C213.696 34.9318 214.251 35.059 214.991 35.059C215.454 35.059 215.963 35.0243 216.518 34.9549V39.5C215.362 39.6157 214.402 39.6735 213.638 39.6735C211.695 39.6735 210.238 39.2456 209.267 38.3897C208.318 37.5108 207.844 35.9264 207.844 33.6365V26.5586H204.86V22.1523H207.844V18.1276L212.806 16.4622V22.1523H216.449V26.5586H212.806V33.3242Z" fill="#E93538"/>
</svg>
