<svg width="215" height="54" viewBox="0 0 215 54" fill="none" xmlns="http://www.w3.org/2000/svg">
<rect x="28.8965" y="-0.195312" width="38.4036" height="38.4036" rx="3.01067" transform="rotate(48.8018 28.8965 -0.195312)" fill="#FF9052"/>
<path d="M14.8439 28.2171C13.8521 27.2873 12.8679 26.3663 11.8945 25.4542C12.2808 25.0714 12.6319 24.7166 12.9921 24.3692C15.5981 21.8562 18.2072 19.3446 20.8132 16.8302C21.1596 16.4961 21.1581 16.4902 21.4923 16.8139C23.4391 18.6927 25.3859 20.5731 27.3297 22.4549C27.44 22.5613 27.5198 22.6086 27.6608 22.4711C28.694 21.4615 29.7395 20.4607 30.7773 19.4555C31.789 18.4769 32.7992 17.4954 33.8109 16.5153C33.8201 16.5049 33.8355 16.5005 33.8416 16.499C36.9259 19.4703 40.0086 22.4401 43.0975 25.4158C41.0679 27.3641 39.0429 29.3095 37.0301 31.2416C36.0965 30.331 35.1415 29.3997 34.185 28.4669C34.162 28.4787 34.1375 28.4905 34.1145 28.5024C34.1696 28.4388 34.2218 28.3693 34.2831 28.3102C35.2458 27.3952 36.2085 26.4816 37.1742 25.5695C37.2892 25.4601 37.2478 25.3936 37.1527 25.3035C36.1456 24.3396 35.1415 23.3743 34.1405 22.4046C33.8493 22.1223 33.8615 22.1208 33.5703 22.4031C32.1538 23.772 30.7343 25.1364 29.3164 26.5023C27.7022 28.0574 26.0865 29.6125 24.4723 31.1691C24.342 31.2948 24.1289 31.4175 24.1182 31.5535C24.109 31.6658 24.345 31.7944 24.4707 31.9171C25.3782 32.7922 26.2873 33.6674 27.1932 34.544C27.2975 34.6445 27.3941 34.7539 27.5121 34.878C27.624 34.7539 27.716 34.643 27.8187 34.5425C28.7292 33.66 29.6429 32.7789 30.5519 31.8949C30.6301 31.8181 30.6853 31.7929 30.7727 31.8772C31.6832 32.7597 32.5953 33.6408 33.5059 34.5233C33.5365 34.5528 33.558 34.5913 33.5856 34.6282C31.5621 36.5825 29.5448 38.5323 27.506 40.5013C27.1932 40.1982 26.9005 39.9115 26.6046 39.6262C24.9214 38.0031 23.2383 36.3799 21.5551 34.7583C20.5035 33.7457 19.4534 32.7302 18.3973 31.722C18.2608 31.5919 18.2501 31.5224 18.3973 31.3805C20.3257 29.5327 22.2465 27.6775 24.1688 25.8238C24.2224 25.7721 24.2715 25.7159 24.3297 25.673C24.6762 25.4173 24.5382 25.3907 24.3251 25.1852C23.321 24.2184 22.317 23.2516 21.3175 22.2804C21.1887 22.1548 21.1151 22.1548 20.9772 22.2952C20.4315 22.854 19.8673 23.395 19.3047 23.9376C17.9098 25.2842 16.5102 26.6294 15.1137 27.9732C15.0187 28.0648 14.919 28.1505 14.8439 28.2185V28.2171Z" fill="white"/>
<path d="M60.0794 26.7164C60.0794 24.5228 60.6166 22.4971 61.691 20.6393C62.7878 18.7815 64.2651 17.3154 66.1229 16.241C67.9807 15.1443 70.0064 14.5959 72.1999 14.5959C74.4382 14.5959 76.5087 15.1778 78.4112 16.3418C80.3138 17.5057 81.7911 19.0389 82.8431 20.9415L78.4112 23.3253C77.7845 22.2062 76.9228 21.322 75.826 20.6729C74.7292 20.0014 73.5205 19.6657 72.1999 19.6657C70.9241 19.6657 69.7378 19.979 68.641 20.6058C67.5666 21.2325 66.716 22.0942 66.0893 23.191C65.4626 24.2654 65.1492 25.4405 65.1492 26.7164C65.1492 27.9922 65.4626 29.1785 66.0893 30.2753C66.7384 31.3497 67.6002 32.2114 68.6746 32.8606C69.749 33.4873 70.9241 33.8006 72.1999 33.8006C73.5205 33.8006 74.7404 33.4649 75.8596 32.7934C76.9787 32.0995 77.8405 31.1818 78.4448 30.0403L82.9103 32.4577C81.8583 34.3826 80.3698 35.9382 78.4448 37.1245C76.5423 38.2885 74.4606 38.8704 72.1999 38.8704C70.0064 38.8704 67.9807 38.322 66.1229 37.2253C64.2651 36.1285 62.7878 34.6512 61.691 32.7934C60.6166 30.9356 60.0794 28.9099 60.0794 26.7164ZM92.5746 38.904C90.963 38.904 89.4745 38.5123 88.1091 37.7289C86.7661 36.9231 85.6917 35.8375 84.8859 34.4721C84.1025 33.1068 83.7108 31.6295 83.7108 30.0403C83.7108 28.4287 84.1025 26.9514 84.8859 25.6084C85.6917 24.243 86.7661 23.1686 88.1091 22.3852C89.4745 21.5794 90.963 21.1765 92.5746 21.1765C94.1638 21.1765 95.6299 21.5794 96.9729 22.3852C98.3382 23.1686 99.4126 24.243 100.196 25.6084C101.002 26.9514 101.405 28.4287 101.405 30.0403C101.405 31.6295 101.002 33.1068 100.196 34.4721C99.4126 35.8375 98.3382 36.9231 96.9729 37.7289C95.6299 38.5123 94.1638 38.904 92.5746 38.904ZM92.541 34.1028C93.6601 34.1028 94.6226 33.7111 95.4284 32.9277C96.2342 32.1219 96.6371 31.1594 96.6371 30.0403C96.6371 28.9211 96.2342 27.9586 95.4284 27.1528C94.6226 26.347 93.6601 25.9441 92.541 25.9441C91.4218 25.9441 90.4593 26.347 89.6536 27.1528C88.8701 27.9586 88.4784 28.9211 88.4784 30.0403C88.4784 31.1594 88.8701 32.1219 89.6536 32.9277C90.4593 33.7111 91.4218 34.1028 92.541 34.1028ZM107.891 26.3806C107.891 26.7611 108.126 27.0521 108.596 27.2536C109.066 27.4326 109.816 27.6229 110.846 27.8243C112.166 28.0929 113.263 28.3951 114.136 28.7309C115.009 29.0442 115.77 29.5814 116.419 30.3424C117.091 31.0811 117.426 32.1107 117.426 33.4313C117.426 34.5729 117.08 35.5577 116.386 36.3859C115.692 37.1917 114.774 37.8072 113.633 38.2325C112.491 38.6354 111.26 38.8369 109.939 38.8369C108.126 38.8369 106.582 38.5123 105.306 37.8632C104.03 37.1917 103.068 36.2068 102.419 34.9086L106.347 32.8941C106.884 34.3267 108.081 35.0429 109.939 35.0429C110.7 35.0429 111.361 34.9086 111.92 34.64C112.502 34.349 112.793 33.9461 112.793 33.4313C112.793 32.9837 112.525 32.6479 111.987 32.4241C111.473 32.2002 110.644 31.9652 109.503 31.719C108.205 31.428 107.119 31.1259 106.246 30.8125C105.373 30.4767 104.623 29.9731 103.997 29.3016C103.37 28.6077 103.056 27.69 103.056 26.5485C103.056 25.4517 103.37 24.5004 103.997 23.6946C104.623 22.8665 105.463 22.2397 106.515 21.8144C107.589 21.3892 108.753 21.1765 110.006 21.1765C111.484 21.1765 112.816 21.4787 114.002 22.083C115.188 22.6874 116.117 23.5603 116.789 24.7019L112.894 26.6156C112.625 26.0561 112.256 25.642 111.786 25.3734C111.338 25.1048 110.745 24.9705 110.006 24.9705C109.357 24.9705 108.843 25.1048 108.462 25.3734C108.081 25.6196 107.891 25.9553 107.891 26.3806ZM131.123 21.613H136.125L130.485 38.1654C129.545 40.5828 128.269 42.3846 126.657 43.5709C125.068 44.7572 123.165 45.272 120.949 45.1153V40.482C121.084 40.5044 121.285 40.5156 121.554 40.5156C122.494 40.5156 123.277 40.2694 123.904 39.777C124.531 39.2845 125.057 38.6018 125.482 37.7289L118.23 21.613H123.4L127.799 31.249L131.123 21.613Z" fill="#121328"/>
<path d="M156.472 14.9316V14.898H161.508V38.4004H156.472V24.1647L150.496 34.17H149.254L143.244 24.1311V38.4004H138.207V14.898H143.244V14.9316L143.311 14.898L149.858 25.9106L156.405 14.898L156.472 14.9316ZM177.381 21.613H182.149V38.4004H177.381V37.1245C176.642 37.6841 175.825 38.1094 174.93 38.4004C174.057 38.7138 173.173 38.8704 172.278 38.8704C170.532 38.8704 169.021 38.4899 167.745 37.7289C166.492 36.9679 165.529 35.927 164.858 34.6064C164.186 33.2634 163.85 31.7414 163.85 30.0403C163.85 28.3391 164.186 26.8171 164.858 25.4741C165.529 24.1087 166.492 23.0455 167.745 22.2845C169.021 21.5235 170.532 21.143 172.278 21.143C173.195 21.143 174.091 21.2996 174.964 21.613C175.837 21.9264 176.642 22.3628 177.381 22.9224V21.613ZM172.916 34.3043C174.169 34.3043 175.221 33.9014 176.072 33.0956C176.922 32.2898 177.347 31.249 177.347 29.9731C177.347 28.742 176.922 27.7348 176.072 26.9514C175.221 26.168 174.169 25.7763 172.916 25.7763C171.662 25.7763 170.633 26.168 169.827 26.9514C169.021 27.7348 168.618 28.7644 168.618 30.0403C168.618 31.3161 169.021 32.3457 169.827 33.1291C170.633 33.9126 171.662 34.3043 172.916 34.3043ZM196.468 21.2772L196.132 25.8098C195.975 25.7427 195.718 25.7091 195.36 25.7091C193.994 25.7091 192.875 26.1008 192.002 26.8842C191.152 27.6453 190.726 28.6525 190.726 29.906V38.4004H185.925V21.613H190.726V24.3326C191.129 23.4596 191.779 22.7322 192.674 22.1502C193.569 21.5682 194.655 21.2772 195.931 21.2772H196.468ZM205.933 32.4241C205.933 33.0508 206.101 33.4873 206.437 33.7335C206.795 33.9797 207.332 34.1028 208.048 34.1028C208.496 34.1028 208.989 34.0692 209.526 34.0021V38.4004C208.407 38.5123 207.478 38.5683 206.739 38.5683C204.859 38.5683 203.449 38.1542 202.509 37.326C201.591 36.4754 201.132 34.9422 201.132 32.7263V25.877H198.245V21.613H201.132V17.7183L205.933 16.1067V21.613H209.459V25.877H205.933V32.4241Z" fill="#FF9052"/>
</svg>
